<?xml version="1.0" encoding="utf-8"?>
<!-- Generator: Adobe Illustrator 24.2.1, SVG Export Plug-In . SVG Version: 6.00 Build 0)  -->
<svg version="1.1" id="Layer_1" xmlns="http://www.w3.org/2000/svg" xmlns:xlink="http://www.w3.org/1999/xlink" x="0px" y="0px"
	 viewBox="0 0 851 315" style="enable-background:new 0 0 851 315;" xml:space="preserve">
<style type="text/css">
	.st0{fill:#FFFFFF;}
	.st1{opacity:0.5;clip-path:url(#SVGID_2_);fill:#DBD1D1;enable-background:new    ;}
	.st2{clip-path:url(#SVGID_4_);fill:#254116;}
	.st3{clip-path:url(#SVGID_6_);fill:#8825EA;}
	.st4{opacity:0.5;clip-path:url(#SVGID_8_);fill:#DBD1D1;enable-background:new    ;}
	.st5{opacity:0.2;clip-path:url(#SVGID_10_);fill:#161616;enable-background:new    ;}
	.st6{clip-path:url(#SVGID_12_);fill:#254116;}
	.st7{opacity:0.2;clip-path:url(#SVGID_14_);fill:#161616;enable-background:new    ;}
	.st8{clip-path:url(#SVGID_16_);fill:#254116;}
	.st9{clip-path:url(#SVGID_18_);fill:#8825EA;}
	.st10{clip-path:url(#SVGID_20_);fill:#254116;}
	.st11{clip-path:url(#SVGID_22_);fill:#8825EA;}
	.st12{clip-path:url(#SVGID_24_);fill:#8825EA;}
	.st13{fill:#8825EA;}
	.st14{fill:#254116;}
	.st15{fill:#67A22A;}
	.st16{fill:#F1F1F1;}
	.st17{fill:#CDCDCD;}
	.st18{fill:none;stroke:#000000;stroke-miterlimit:10;}
	.st19{fill:#2A2A2A;}
	.st20{fill:#616161;}
	.st21{opacity:0.25;enable-background:new    ;}
	.st22{fill:#EFC392;}
	.st23{fill:#CA8B61;}
	.st24{fill:#A8A8A8;}
	.st25{fill:#1F1102;}
	.st26{fill:#E27A7A;}
	.st27{fill:#8CAFFB;}
	.st28{fill:#E27FE8;}
	.st29{opacity:0.3;fill:#FFFFFF;enable-background:new    ;}
	.st30{fill:#F0CAA1;}
	.st31{font-family:'LequireDEMO';}
	.st32{font-size:33.6296px;}
	.st33{font-size:14.1354px;}
</style>
<g id="BACKGROUND">
</g>
<g id="OBJECTS">
	<g>
		<rect class="st0" width="851" height="315"/>
		<g>
			<g>
				<defs>
					<rect id="SVGID_1_" width="851" height="315"/>
				</defs>
				<clipPath id="SVGID_2_">
					<use xlink:href="#SVGID_1_"  style="overflow:visible;"/>
				</clipPath>
				<polygon class="st1" points="0,179.01 0,315 135.99,315 				"/>
			</g>
			<g>
				<defs>
					<rect id="SVGID_3_" width="851" height="315"/>
				</defs>
				<clipPath id="SVGID_4_">
					<use xlink:href="#SVGID_3_"  style="overflow:visible;"/>
				</clipPath>
				<polygon class="st2" points="0,223.81 0,315 91.19,315 				"/>
			</g>
			<g>
				<defs>
					<rect id="SVGID_5_" width="851" height="315"/>
				</defs>
				<clipPath id="SVGID_6_">
					<use xlink:href="#SVGID_5_"  style="overflow:visible;"/>
				</clipPath>
				<path class="st3" d="M0,245.7V315h69.3C45.68,291.38,19.55,265.25,0,245.7z"/>
			</g>
			<g>
				<defs>
					<rect id="SVGID_7_" width="851" height="315"/>
				</defs>
				<clipPath id="SVGID_8_">
					<use xlink:href="#SVGID_7_"  style="overflow:visible;"/>
				</clipPath>
				<polygon class="st4" points="858.7,69.58 858.7,433.75 380,-44.95 380,-237.75 551.37,-237.75 				"/>
			</g>
			<g>
				<defs>
					<rect id="SVGID_9_" width="851" height="315"/>
				</defs>
				<clipPath id="SVGID_10_">
					<use xlink:href="#SVGID_9_"  style="overflow:visible;"/>
				</clipPath>
				<polygon class="st5" points="-206,46.58 -206,410.75 272.7,-67.95 272.7,-260.75 101.33,-260.75 				"/>
			</g>
			<g>
				<defs>
					<rect id="SVGID_11_" width="851" height="315"/>
				</defs>
				<clipPath id="SVGID_12_">
					<use xlink:href="#SVGID_11_"  style="overflow:visible;"/>
				</clipPath>
				<polygon class="st6" points="484,-1.75 671.35,185.6 858.7,-1.75 858.7,-115.22 484,-115.22 				"/>
			</g>
			<g>
				<defs>
					<rect id="SVGID_13_" width="851" height="315"/>
				</defs>
				<clipPath id="SVGID_14_">
					<use xlink:href="#SVGID_13_"  style="overflow:visible;"/>
				</clipPath>
				<polygon class="st7" points="559.3,-33.18 858.7,266.22 858.7,130.18 657.53,-71 559.3,-71 				"/>
			</g>
			<g>
				<defs>
					<rect id="SVGID_15_" width="851" height="315"/>
				</defs>
				<clipPath id="SVGID_16_">
					<use xlink:href="#SVGID_15_"  style="overflow:visible;"/>
				</clipPath>
				<polygon class="st8" points="858.7,-71 559.3,-71 858.7,228.4 				"/>
			</g>
			<g>
				<defs>
					<rect id="SVGID_17_" width="851" height="315"/>
				</defs>
				<clipPath id="SVGID_18_">
					<use xlink:href="#SVGID_17_"  style="overflow:visible;"/>
				</clipPath>
				<polygon class="st9" points="646,-44.67 767.66,76.99 889.32,-44.67 				"/>
			</g>
			<g>
				<defs>
					<rect id="SVGID_19_" width="851" height="315"/>
				</defs>
				<clipPath id="SVGID_20_">
					<use xlink:href="#SVGID_19_"  style="overflow:visible;"/>
				</clipPath>
				<polygon class="st10" points="-55.08,-84 244.32,-84 -55.08,215.4 				"/>
			</g>
			<g>
				<defs>
					<rect id="SVGID_21_" width="851" height="315"/>
				</defs>
				<clipPath id="SVGID_22_">
					<use xlink:href="#SVGID_21_"  style="overflow:visible;"/>
				</clipPath>
				<polygon class="st11" points="185.62,-67 63.96,54.66 -57.7,-67 				"/>
			</g>
			<g>
				<defs>
					<rect id="SVGID_23_" width="851" height="315"/>
				</defs>
				<clipPath id="SVGID_24_">
					<use xlink:href="#SVGID_23_"  style="overflow:visible;"/>
				</clipPath>
				<polygon class="st12" points="635,228.81 635,320 726.19,320 				"/>
			</g>
		</g>
		
			<rect x="451.97" y="78.08" transform="matrix(0.7071 -0.7071 0.7071 0.7071 69.2899 361.4827)" class="st13" width="38.05" height="38.05"/>
		<path class="st13" d="M744.11,278.23c-5.21,0-9.44,4.2-9.44,9.39c0,5.18,4.22,9.39,9.44,9.39c5.21,0,9.44-4.2,9.44-9.39
			C753.55,282.43,749.32,278.23,744.11,278.23z M746.46,284.33c0,0-0.79,0-1.11,0c-0.39,0-0.47,0.16-0.47,0.56c0,0.33,0,0.97,0,0.97
			h1.58l-0.15,1.71h-1.43v5.1h-2.05v-5.08h-1.06v-1.73h1.06c0,0,0-0.25,0-1.36c0-1.28,0.69-1.94,2.21-1.94c0.25,0,1.42,0,1.42,0
			L746.46,284.33L746.46,284.33z"/>
		<path class="st13" d="M827,286.01c-0.89,0-1.61,0.72-1.61,1.6c0,0.89,0.72,1.6,1.61,1.6s1.61-0.72,1.61-1.6
			S827.89,286.01,827,286.01z"/>
		<path class="st13" d="M830.77,284.78c-0.09-0.23-0.19-0.39-0.36-0.55c-0.17-0.17-0.33-0.27-0.56-0.36
			c-0.17-0.07-0.43-0.14-0.89-0.17c-0.51-0.02-0.66-0.03-1.95-0.03c-1.29,0-1.44,0.01-1.95,0.03c-0.47,0.02-0.72,0.1-0.89,0.17
			c-0.22,0.09-0.39,0.19-0.56,0.36c-0.17,0.17-0.27,0.33-0.36,0.55c-0.06,0.17-0.14,0.42-0.16,0.89c-0.02,0.51-0.03,0.66-0.03,1.94
			s0.01,1.44,0.03,1.94c0.02,0.47,0.1,0.72,0.16,0.89c0.09,0.22,0.19,0.38,0.36,0.55c0.17,0.17,0.33,0.27,0.56,0.36
			c0.17,0.06,0.43,0.14,0.89,0.16c0.51,0.02,0.66,0.03,1.95,0.03c1.29,0,1.44-0.01,1.95-0.03c0.47-0.02,0.73-0.1,0.89-0.16
			c0.23-0.09,0.39-0.19,0.56-0.36c0.17-0.17,0.27-0.33,0.36-0.55c0.07-0.17,0.14-0.42,0.16-0.89c0.02-0.51,0.03-0.66,0.03-1.94
			s-0.01-1.43-0.03-1.94C830.91,285.2,830.83,284.95,830.77,284.78z M827,290.08c-1.37,0-2.48-1.1-2.48-2.47
			c0-1.36,1.11-2.47,2.48-2.47s2.48,1.11,2.48,2.47C829.48,288.98,828.37,290.08,827,290.08z M829.58,285.62
			c-0.32,0-0.58-0.26-0.58-0.58c0-0.32,0.26-0.58,0.58-0.58s0.58,0.26,0.58,0.58C830.16,285.37,829.9,285.62,829.58,285.62z"/>
		<path class="st13" d="M827,278.23c-5.21,0-9.44,4.2-9.44,9.39c0,5.18,4.22,9.39,9.44,9.39c5.21,0,9.44-4.2,9.44-9.39
			C836.44,282.43,832.21,278.23,827,278.23z M831.8,289.59c-0.02,0.51-0.11,0.86-0.22,1.17c-0.12,0.32-0.29,0.58-0.56,0.85
			c-0.27,0.27-0.54,0.43-0.86,0.56c-0.3,0.12-0.66,0.2-1.17,0.22c-0.52,0.02-0.68,0.03-1.99,0.03s-1.48,0-1.99-0.03
			c-0.52-0.02-0.87-0.11-1.17-0.22c-0.32-0.12-0.59-0.29-0.85-0.56c-0.27-0.27-0.44-0.53-0.56-0.85c-0.12-0.31-0.2-0.65-0.22-1.17
			c-0.02-0.51-0.03-0.67-0.03-1.98c0-1.3,0-1.47,0.03-1.98c0.02-0.51,0.11-0.86,0.22-1.16c0.12-0.32,0.29-0.59,0.56-0.85
			c0.27-0.27,0.54-0.43,0.85-0.55s0.66-0.2,1.17-0.22s0.68-0.03,1.99-0.03s1.47,0.01,1.99,0.03c0.51,0.02,0.86,0.11,1.17,0.22
			c0.32,0.12,0.59,0.29,0.86,0.55c0.27,0.27,0.43,0.54,0.56,0.85c0.12,0.3,0.2,0.65,0.22,1.16c0.02,0.51,0.03,0.68,0.03,1.98
			C831.83,288.92,831.82,289.08,831.8,289.59z"/>
		<path class="st13" d="M786.29,278.23c-5.21,0-9.44,4.2-9.44,9.39c0,5.18,4.22,9.39,9.44,9.39c5.21,0,9.44-4.2,9.44-9.39
			C795.72,282.43,791.5,278.23,786.29,278.23z M790.48,285.36c-0.01,1.54-0.27,4.63-3.61,6.09c-3.34,1.46-6.07-0.61-6.07-0.61
			c2.07,0.35,3.26-0.8,3.26-0.8c-1.7-0.07-2.04-1.57-2.04-1.57c0.27,0.06,0.97-0.02,0.97-0.02c-1.77-0.48-1.72-2.28-1.72-2.28
			c0.17,0.19,0.97,0.37,0.97,0.37c-1.44-1.18-0.52-2.83-0.52-2.83c1.83,2.24,4.35,2.2,4.35,2.2c-0.02-0.28,0-0.53,0.03-0.74
			c0.15-0.89,0.82-1.63,1.7-1.85c1.19-0.3,2.04,0.59,2.04,0.59c0.23,0.05,1.42-0.46,1.42-0.46c-0.05,0.26-0.74,1.15-0.74,1.15
			c0.13,0.01,1.23-0.28,1.23-0.28C791.57,284.66,790.48,285.36,790.48,285.36z"/>
		<g>
			<g>
				<g>
					<path class="st14" d="M264.8,74.53c0.37-0.06,0.57-0.09,0.57-0.09S265.16,74.47,264.8,74.53z"/>
					<path class="st14" d="M178.45,208.93c-1.19-0.95-1.19-0.95-1.19-0.95S177.54,208.47,178.45,208.93z"/>
					<path class="st14" d="M246.84,139.82c-0.37,1.03-0.47,1.72-0.47,1.72L246.84,139.82z"/>
					<path class="st14" d="M332.94,205.12c-4.07-1.23-10.12,1.38-14.82,1.26c-6.19-0.15-18.52,2.28-24.8,1.39
						c-6.27-0.89-16.93-4.82-16.93-4.82s-10.84,3.41-17.15,3.99s-18.51-2.45-24.7-2.6c-6.19-0.15-14.09,5.43-18.07,5.33
						c-3.99-0.1-3.41-2.08-9.9-2.87s-24.16,5.29-26.73,3.23c-0.58-0.47-1.04-0.83-1.38-1.11c1.97,1,6.88,1.89,18.26-2.57
						c16.63-6.52,15.96,3.85,23.92,0.06c7.96-3.79,17.78-6.28,26.54-3.86s15.87,3.33,20.41-2.02s3.51-36.33,4.51-42.81
						s1.58-21.89-7.18-28.3c0,0-7.57,0.22-12.69,3.6c-3.25,2.15-4.73,5-5.37,6.8l1.18-4.34c0,0-4.84,3.42-8.64,2.39
						c-3.79-1.04-7.29-2.89-7.29-2.89s7.15,3.79,12.58,0.54c5.43-3.25,11.26-6.89,15.21-7.5s3.95-0.61,3.95-0.61
						s-7.92-4.6-11.03-4.32c-3.12,0.28-8.89,3.21-8.89,3.21s3.73-2.74,6.5-3.54c0,0-7.39-2.11-14.98-0.37
						c-7.6,1.74-14.81,2.27-16.07,3.78s-9.68,7.99-11.5,8.45c-1.82,0.47-3.43,0.07-3.43,0.07s4.37,0.03,7.53-3.79
						c3.16-3.82,4.88-4.92,4.88-4.92s-5.54,1.4-10.95-1.05c-5.41-2.45-10.02-5.32-11.51-7.36c-1.48-2.04-2.09-2.92-2.09-2.92
						s5.79,7.85,17.34,8.69c11.55,0.83,16.5-1.92,16.5-1.92s-2.86-3.69-6.99-5.29s-9.79-1.89-11.35-0.75
						c-1.56,1.14-1.56,1.14-1.56,1.14s0.12-3.22,7.26-2.54c7.15,0.69,10.93,3.57,12.78,5.35s0.9,1.91,5.36,1.08
						c4.47-0.84,10.82-1.55,10.82-1.55s-14.19-6.88-17.65-10.5c-3.45-3.63-3.94-4.58-8.62-6.55s-7.85-0.7-11.97-2.93
						s-5.84-4.16-5.84-4.16s4.54,2.51,9.72,3.07c5.18,0.56,7.57,1.09,7.57,1.09s-6.02-1.72-8.51-9.06
						c-2.5-7.34-6.79-16.85-6.79-16.85s7.79,14.47,8.17,15.31c0.37,0.84,2.65,5.81,7.52,9.47c4.87,3.66,6.78,4.38,6.78,4.38
						s0.02-5.63,0.9-7.97c0.88-2.34,2.02-6.84,0.5-9.16c-1.52-2.32-2.01-3.12-2.01-3.12s2.71,0.22,3.45,5.4
						c0.74,5.17-1.26,7.92-0.81,12.26c0.44,4.34,3.98,7.89,9.49,11.17c5.51,3.28,8.62,4.62,8.62,4.62s-3.29-5.39-3.12-9.13
						c0.17-3.73,0.26-4.09,0.26-4.09s-0.04,9.88,4.65,12.78c4.69,2.91,13.62,6.24,13.62,6.24s-7.09-10.84-8.3-16.41
						c-1.2-5.58-3.03-8.1-4.58-9.2s-3.36-2.48-3.36-2.48s5.59,1.51,6.7,4.45c0,0-0.31-6.7-0.15-8.23c0.16-1.53,0.41-2.19-1.9-5.83
						s-1.92-6.82-7.7-8.77c-5.78-1.95-7.54-3.96-8.69-3.28c-1.16,0.68-6.18,1.62-6.18,1.62s4.57-3.43,7.84-2.09
						c0,0-7.14-5.57-8.19-11.26c0,0,4.44,8.25,11.22,11.13s10.49,5.49,12.15,8.25c1.66,2.76,2.57,4.19,2.57,4.19
						s-0.34-3.79,0.22-7.51s0.53-8.96,0.43-12.86s0.3-4.24-2.42-7.26c-2.72-3.02-10.18-5.4-10.18-5.4s10.35,1.75,12.14,5.61
						c0,0-1.34-6.49-2.76-9.63c-1.42-3.14-6.52-10.31-6.52-10.31s8.67,7.61,9.28,13.25c0,0,1.54-6.57,6.17-7.72
						c0,0-5.64,3.68-4.86,10.43s2.26,10.68,2.26,13.63c0,0,5.24-3.33,8.5-4.79c3.26-1.45,7.01-5.02,7.22-7.42
						c0,0,0.89,3.64-5.29,7.15c-6.18,3.51-10.2,5.34-10.48,10.29c-0.28,4.95-0.51,9.67-0.51,9.67s1.18-3.28,5.38-4.39
						c3.07-0.82,5.37-1.25,6.39-1.43c-1.74,0.32-7.03,1.54-9.23,4.94c-2.66,4.11-3.58,3.22-3.53,9.28s-0.01,11.61,1.77,16.14
						s2.42,5.49,2.42,5.49s3.82-8.29,6.53-9.56s6.17-7.64,6.07-10.28c-0.09-2.64-1.01-6.95-1.01-6.95s3.32,4.37,1.97,9.69
						s-5.91,8.43-5.91,8.43s6.71-2.39,9.59,0.59c0,0-6.2-2.47-9.99,1.29c-3.79,3.76-6.02,9.49-6.02,9.49s6.56,10.31,11.45,13.07
						c0,0-1.9-4.37-1.39-7.67c0.51-3.29,2.23-5.97,2.23-5.97s-2.6,4.82-0.5,10.77s4.69,6.33,5.95,7.7c1.27,1.37,2.9,1.59,2.9,1.59
						s1.64-0.14,2.97-1.45s3.93-1.56,6.32-7.4s0.03-10.78,0.03-10.78s1.59,2.75,1.94,6.07s-1.76,7.59-1.76,7.59
						c5.02-2.51,12.07-12.49,12.07-12.49s-1.94-5.83-5.55-9.78s-9.91-1.78-9.91-1.78c3.02-2.84,9.6-0.12,9.6-0.12
						s-4.4-3.33-5.49-8.71s2.44-9.58,2.44-9.58s-1.13,4.26-1.35,6.89s2.92,9.16,5.57,10.56c2.64,1.4,6.06,9.87,6.06,9.87
						s0.69-0.93,2.69-5.36c2-4.44,2.21-9.98,2.56-16.03c0.34-6.05-0.62-5.21-3.07-9.44c-2.03-3.51-7.25-4.98-8.98-5.38
						c1.01,0.22,3.28,0.77,6.31,1.74c4.14,1.32,5.16,4.65,5.16,4.65s0-4.72-0.04-9.68s-3.96-6.98-9.97-10.79
						c-6.01-3.81-4.93-7.4-4.93-7.4c0.1,2.4,3.67,6.15,6.85,7.76c3.19,1.61,8.25,5.2,8.25,5.2c0.15-2.95,1.82-6.8,2.93-13.5
						s-4.34-10.65-4.34-10.65c4.57,1.37,5.79,8.01,5.79,8.01c0.88-5.61,9.91-12.78,9.91-12.78s-5.44,6.91-7.01,9.98
						s-3.22,9.48-3.22,9.48c1.98-3.77,12.4-5.01,12.4-5.01s-7.57,2.02-10.43,4.9s-2.48,3.24-2.77,7.13
						c-0.29,3.89-0.58,9.12-0.2,12.86c0.38,3.75-0.14,7.51-0.14,7.51s0.98-1.39,2.78-4.06s5.63-5.1,12.54-7.64
						c6.91-2.55,11.75-10.57,11.75-10.57c-1.32,5.63-8.73,10.84-8.73,10.84c3.33-1.18,7.73,2.47,7.73,2.47s-4.97-1.18-6.09-1.92
						s-2.98,1.19-8.84,2.85c-5.86,1.67-5.63,4.86-8.11,8.38c-2.49,3.52-2.27,4.19-2.19,5.73s-0.55,8.21-0.55,8.21
						c1.25-2.88,6.91-4.12,6.91-4.12s-1.88,1.29-3.48,2.32c-1.6,1.02-3.55,3.45-5.02,8.97c-1.47,5.51-9.09,15.99-9.09,15.99
						s9.08-2.89,13.91-5.56c4.83-2.68,5.26-12.54,5.26-12.54s0.07,0.36,0.06,4.09c-0.01,3.74-3.56,8.96-3.56,8.96
						s3.18-1.18,8.84-4.19s9.36-6.38,10.02-10.69c0.66-4.31-1.2-7.15-0.21-12.28c0.99-5.13,3.71-5.22,3.71-5.22
						s-0.53,0.77-2.16,3.02c-1.63,2.24-0.72,6.79,0.05,9.17s0.51,8,0.51,8s1.94-0.62,6.98-4.04s7.56-8.28,7.97-9.09
						c0.41-0.82,8.9-14.89,8.9-14.89s-4.75,9.29-7.6,16.5s-8.95,8.64-8.95,8.64s2.41-0.41,7.61-0.72c5.2-0.31,9.86-2.59,9.86-2.59
						s-1.82,1.84-6.04,3.87c-4.22,2.02-7.33,0.61-12.1,2.34s-5.3,2.66-8.92,6.12c-3.63,3.45-18.14,9.63-18.14,9.63
						s6.31,1.02,10.73,2.07s3.48,0.87,5.41-0.81s5.85-4.38,13.02-4.72c7.17-0.34,7.13,2.89,7.13,2.89s0,0-1.5-1.22
						s-7.17-1.2-11.38,0.19s-7.24,4.94-7.24,4.94s4.81,2.99,16.38,2.72c11.58-0.27,17.74-7.83,17.74-7.83s-0.65,0.85-2.23,2.82
						c-1.58,1.97-6.33,4.61-11.85,6.79c-5.52,2.19-10.99,0.52-10.99,0.52s1.66,1.18,4.64,5.15c2.97,3.97,7.34,4.15,7.34,4.15
						s-1.62,0.31-3.42-0.24c-1.8-0.56-9.89-7.44-11.07-9.01c-1.18-1.56-8.36-2.45-15.86-4.56s-14.98-0.37-14.98-0.37
						c2.73,0.93,6.32,3.85,6.32,3.85s-5.63-3.21-8.73-3.64s-11.23,3.78-11.23,3.78s0,0,3.92,0.8s9.56,4.72,14.83,8.23
						s12.59,0.07,12.59,0.07s-3.58,1.68-7.42,2.53s-8.51-2.8-8.51-2.8l0.96,4.4c-0.55-1.83-1.89-4.75-5.03-7.05
						c-4.95-3.62-12.5-4.21-12.5-4.21c-9.07,5.97-9.23,21.39-8.55,27.91c0.68,6.52-1.86,37.42,2.41,42.98s11.42,5,20.28,3.01
						s20.76-3.19,28.94-4.7"/>
					<path class="st14" d="M334.47,199.27"/>
					<path class="st14" d="M308.97,141.34l0.38,1.74C309.35,143.08,309.29,142.39,308.97,141.34z"/>
					<path class="st14" d="M294.23,75.25c-0.36-0.08-0.57-0.12-0.57-0.12S293.86,75.17,294.23,75.25z"/>
				</g>
				<g>
					<path class="st13" d="M240.67,35.1c0,0-1.44-3.73-1.25-5.22s0.19-1.49,0.19-1.49s-0.12,1.65,0.55,3.36
						c0.67,1.71,0.74,3.36,0.74,3.36s2.35-1.89,2.46-3.88s-1.69-3.37-2.58-4.63c-0.89-1.26-1.9-2.74-1.9-2.74s-0.68,2.9-1.75,4.13
						s-0.58,4.47,1.02,5.59S239.75,34.88,240.67,35.1z"/>
					<path class="st13" d="M244.94,35.95c0,0,1.26-3.8,2.35-4.83c1.1-1.03,1.1-1.03,1.1-1.03s-1.14,1.19-1.71,2.94
						c-0.57,1.75-1.56,3.07-1.56,3.07s3.01,0.03,4.36-1.43c1.34-1.46,0.83-3.67,0.95-5.21c0.11-1.54,0.27-3.32,0.27-3.32
						s-2.36,1.8-3.98,2.07c-1.61,0.27-3.29,3.08-2.76,4.97C244.48,35.06,244.37,35.2,244.94,35.95z"/>
					<path class="st13" d="M238.8,37.92c0,0-3.83-1.16-4.89-2.23s-1.06-1.07-1.06-1.07s1.22,1.11,2.99,1.63
						c1.76,0.52,3.11,1.48,3.11,1.48s-0.05-3.01-1.55-4.32s-3.69-0.74-5.24-0.81c-1.54-0.07-3.33-0.19-3.33-0.19
						s1.87,2.32,2.18,3.92s3.17,3.21,5.04,2.63C237.93,38.4,238.06,38.51,238.8,37.92z"/>
					<path class="st13" d="M266.99,51.07c0,0-1.44-3.73-1.25-5.22s0.19-1.49,0.19-1.49s-0.12,1.65,0.55,3.36s0.74,3.36,0.74,3.36
						s2.35-1.89,2.46-3.88c0.11-1.98-1.69-3.37-2.58-4.63c-0.89-1.26-1.9-2.74-1.9-2.74s-0.68,2.9-1.75,4.13s-0.58,4.47,1.02,5.59
						C266.08,50.67,266.08,50.85,266.99,51.07z"/>
					<path class="st13" d="M271.26,51.91c0,0,1.26-3.8,2.35-4.83c1.1-1.03,1.1-1.03,1.1-1.03s-1.14,1.2-1.71,2.95
						s-1.56,3.07-1.56,3.07s3.01,0.03,4.36-1.43c1.34-1.46,0.83-3.67,0.95-5.21c0.11-1.54,0.27-3.32,0.27-3.32s-2.36,1.8-3.98,2.07
						c-1.61,0.27-3.29,3.08-2.76,4.97C270.8,51.03,270.69,51.16,271.26,51.91z"/>
					<path class="st13" d="M265.12,53.88c0,0-3.83-1.16-4.89-2.23c-1.06-1.07-1.06-1.07-1.06-1.07s1.22,1.11,2.99,1.63
						c1.76,0.52,3.11,1.48,3.11,1.48s-0.05-3.01-1.55-4.32s-3.69-0.74-5.24-0.81c-1.54-0.07-3.33-0.19-3.33-0.19
						s1.87,2.32,2.18,3.92s3.17,3.21,5.04,2.63C264.25,54.36,264.38,54.47,265.12,53.88z"/>
					<path class="st13" d="M266.45,82.78c0,0-1.44-3.73-1.25-5.22s0.19-1.49,0.19-1.49s-0.12,1.65,0.55,3.36
						c0.67,1.71,0.74,3.36,0.74,3.36s2.35-1.89,2.46-3.88c0.11-1.98-1.69-3.37-2.58-4.63c-0.89-1.26-1.9-2.74-1.9-2.74
						s-0.68,2.9-1.75,4.13c-1.07,1.23-0.58,4.47,1.02,5.59C265.53,82.39,265.53,82.56,266.45,82.78z"/>
					<path class="st13" d="M270.71,83.63c0,0,1.26-3.8,2.35-4.83c1.1-1.03,1.1-1.03,1.1-1.03s-1.14,1.19-1.71,2.94
						c-0.57,1.75-1.56,3.07-1.56,3.07s3.01,0.03,4.36-1.43s0.83-3.67,0.95-5.21c0.11-1.54,0.27-3.32,0.27-3.32s-2.36,1.8-3.98,2.07
						c-1.61,0.27-3.29,3.08-2.76,4.97S270.14,82.88,270.71,83.63z"/>
					<path class="st13" d="M264.58,85.6c0,0-3.83-1.16-4.89-2.23c-1.06-1.07-1.06-1.07-1.06-1.07s1.22,1.11,2.99,1.63
						c1.76,0.52,3.11,1.48,3.11,1.48s-0.05-3.01-1.55-4.32c-1.5-1.3-3.69-0.74-5.24-0.81s-3.33-0.19-3.33-0.19s1.87,2.32,2.18,3.92
						s3.17,3.21,5.04,2.63C263.7,86.07,263.84,86.19,264.58,85.6z"/>
					<path class="st13" d="M198.46,71.4c0,0-1.44-3.73-1.25-5.22s0.19-1.49,0.19-1.49s-0.12,1.65,0.55,3.36s0.74,3.36,0.74,3.36
						s2.35-1.89,2.46-3.88c0.11-1.98-1.69-3.37-2.58-4.63s-1.9-2.74-1.9-2.74s-0.68,2.9-1.75,4.13c-1.07,1.23-0.58,4.47,1.02,5.59
						S197.54,71.18,198.46,71.4z"/>
					<path class="st13" d="M202.72,72.25c0,0,1.26-3.8,2.35-4.83s1.1-1.03,1.1-1.03s-1.14,1.19-1.71,2.94s-1.56,3.07-1.56,3.07
						s3.01,0.03,4.36-1.43c1.34-1.46,0.83-3.67,0.95-5.21c0.11-1.54,0.27-3.32,0.27-3.32s-2.36,1.8-3.98,2.07s-3.29,3.08-2.76,4.97
						C202.27,71.36,202.15,71.49,202.72,72.25z"/>
					<path class="st13" d="M196.59,74.21c0,0-3.83-1.16-4.89-2.23s-1.06-1.07-1.06-1.07s1.22,1.11,2.99,1.63
						c1.76,0.52,3.11,1.48,3.11,1.48s-0.05-3.01-1.55-4.32c-1.5-1.3-3.69-0.74-5.24-0.81c-1.54-0.07-3.33-0.19-3.33-0.19
						s1.87,2.32,2.18,3.92s3.17,3.21,5.04,2.63C195.71,74.69,195.85,74.8,196.59,74.21z"/>
					<path class="st13" d="M221.35,81.06c0,0-1.44-3.73-1.25-5.22s0.19-1.49,0.19-1.49s-0.12,1.65,0.55,3.36s0.74,3.36,0.74,3.36
						s2.35-1.89,2.46-3.88s-1.69-3.37-2.58-4.63c-0.89-1.26-1.9-2.74-1.9-2.74s-0.68,2.9-1.75,4.13c-1.07,1.23-0.58,4.47,1.02,5.59
						S220.43,80.84,221.35,81.06z"/>
					<path class="st13" d="M225.61,81.9c0,0,1.26-3.8,2.35-4.83s1.1-1.03,1.1-1.03s-1.14,1.19-1.71,2.94s-1.56,3.07-1.56,3.07
						s3.01,0.03,4.36-1.43c1.34-1.46,0.83-3.67,0.95-5.21c0.11-1.54,0.27-3.32,0.27-3.32s-2.36,1.8-3.98,2.07s-3.29,3.08-2.76,4.97
						C225.15,81.02,225.04,81.15,225.61,81.9z"/>
					<path class="st13" d="M219.47,83.87c0,0-3.83-1.16-4.89-2.23s-1.06-1.07-1.06-1.07s1.22,1.11,2.99,1.63
						c1.76,0.52,3.11,1.48,3.11,1.48s-0.05-3.01-1.55-4.32s-3.69-0.74-5.24-0.81c-1.54-0.07-3.33-0.19-3.33-0.19
						s1.87,2.32,2.18,3.92s3.17,3.21,5.04,2.63C218.6,84.35,218.73,84.46,219.47,83.87z"/>
					<path class="st13" d="M238.36,102.12c0,0-1.44-3.73-1.25-5.22s0.19-1.49,0.19-1.49s-0.12,1.65,0.55,3.36s0.74,3.36,0.74,3.36
						s2.35-1.89,2.46-3.88c0.11-1.98-1.69-3.37-2.58-4.63c-0.89-1.26-1.9-2.74-1.9-2.74s-0.68,2.9-1.75,4.13
						c-1.07,1.23-0.58,4.47,1.02,5.59C237.44,101.72,237.44,101.9,238.36,102.12z"/>
					<path class="st13" d="M242.62,102.97c0,0,1.26-3.8,2.35-4.83c1.1-1.03,1.1-1.03,1.1-1.03s-1.14,1.19-1.71,2.94
						s-1.56,3.07-1.56,3.07s3.01,0.03,4.36-1.43s0.83-3.67,0.95-5.21c0.11-1.54,0.27-3.32,0.27-3.32s-2.36,1.8-3.98,2.07
						c-1.61,0.27-3.29,3.08-2.76,4.97S242.05,102.21,242.62,102.97z"/>
					<path class="st13" d="M236.48,104.93c0,0-3.83-1.16-4.89-2.23s-1.06-1.07-1.06-1.07s1.22,1.11,2.99,1.63
						c1.76,0.52,3.11,1.48,3.11,1.48s-0.05-3.01-1.55-4.32s-3.69-0.74-5.24-0.81c-1.54-0.07-3.33-0.19-3.33-0.19
						s1.87,2.32,2.18,3.92s3.17,3.21,5.04,2.63S235.74,105.52,236.48,104.93z"/>
					<path class="st13" d="M191.68,114.32c0,0-1.44-3.73-1.25-5.22s0.19-1.49,0.19-1.49s-0.12,1.65,0.55,3.36s0.74,3.36,0.74,3.36
						s2.35-1.89,2.46-3.88s-1.69-3.37-2.58-4.63c-0.89-1.26-1.9-2.74-1.9-2.74s-0.68,2.9-1.75,4.13c-1.07,1.23-0.58,4.47,1.02,5.59
						S190.76,114.1,191.68,114.32z"/>
					<path class="st13" d="M195.95,115.17c0,0,1.26-3.8,2.35-4.83s1.1-1.03,1.1-1.03s-1.14,1.19-1.71,2.94s-1.56,3.07-1.56,3.07
						s3.01,0.03,4.36-1.43c1.34-1.46,0.83-3.67,0.95-5.21c0.11-1.54,0.27-3.32,0.27-3.32s-2.36,1.8-3.98,2.07
						c-1.61,0.27-3.29,3.08-2.76,4.97C195.49,114.28,195.37,114.41,195.95,115.17z"/>
					<path class="st13" d="M189.81,117.13c0,0-3.83-1.16-4.89-2.23s-1.06-1.07-1.06-1.07s1.22,1.11,2.99,1.63
						c1.76,0.52,3.11,1.48,3.11,1.48s-0.05-3.01-1.55-4.32s-3.69-0.74-5.24-0.81c-1.54-0.07-3.33-0.19-3.33-0.19
						s1.87,2.32,2.18,3.92s3.17,3.21,5.04,2.63C188.93,117.61,189.07,117.72,189.81,117.13z"/>
				</g>
				<g>
					<g>
						<path class="st13" d="M320.52,37.05c0,0,1.62-3.66,1.5-5.16s-0.12-1.5-0.12-1.5s0.04,1.65-0.71,3.33s-0.91,3.32-0.91,3.32
							s-2.25-2-2.26-3.99s1.85-3.28,2.81-4.5c0.95-1.22,2.03-2.65,2.03-2.65s0.54,2.93,1.55,4.21c1.01,1.28,0.36,4.49-1.3,5.54
							C321.45,36.7,321.44,36.88,320.52,37.05z"/>
						<path class="st13" d="M316.22,37.69c0,0-1.07-3.86-2.12-4.94c-1.05-1.08-1.05-1.08-1.05-1.08s1.08,1.25,1.56,3.02
							s1.41,3.14,1.41,3.14s-3.01-0.12-4.28-1.64c-1.27-1.53-0.65-3.71-0.69-5.25c-0.04-1.55-0.11-3.33-0.11-3.33
							s2.27,1.92,3.87,2.27s3.14,3.24,2.52,5.1C316.71,36.83,316.82,36.97,316.22,37.69z"/>
						<path class="st13" d="M322.25,39.96c0,0,3.88-0.97,4.99-1.98c1.11-1.02,1.11-1.02,1.11-1.02s-1.28,1.05-3.06,1.48
							c-1.79,0.44-3.18,1.33-3.18,1.33s0.2-3.01,1.76-4.24s3.72-0.56,5.27-0.55c1.55,0.01,3.34-0.02,3.34-0.02s-1.98,2.22-2.37,3.81
							s-3.32,3.05-5.16,2.38C323.1,40.48,322.96,40.58,322.25,39.96z"/>
						<path class="st13" d="M293.45,51.71c0,0,1.62-3.66,1.5-5.16s-0.12-1.5-0.12-1.5s0.04,1.65-0.71,3.33
							c-0.75,1.68-0.91,3.32-0.91,3.32s-2.25-2-2.26-3.99s1.85-3.28,2.81-4.5s2.03-2.65,2.03-2.65s0.54,2.93,1.55,4.21
							c1.01,1.28,0.36,4.49-1.3,5.54C294.38,51.36,294.38,51.54,293.45,51.71z"/>
						<path class="st13" d="M289.15,52.35c0,0-1.07-3.86-2.12-4.94c-1.05-1.08-1.05-1.08-1.05-1.08s1.08,1.25,1.56,3.02
							s1.41,3.14,1.41,3.14s-3.01-0.12-4.28-1.64c-1.27-1.53-0.65-3.71-0.69-5.25c-0.04-1.55-0.11-3.33-0.11-3.33
							s2.27,1.92,3.87,2.27c1.6,0.35,3.14,3.24,2.52,5.1C289.64,51.49,289.75,51.63,289.15,52.35z"/>
						<path class="st13" d="M295.18,54.61c0,0,3.88-0.97,4.99-1.98c1.11-1.02,1.11-1.02,1.11-1.02s-1.28,1.05-3.06,1.48
							c-1.79,0.44-3.18,1.33-3.18,1.33s0.2-3.01,1.76-4.24c1.56-1.23,3.72-0.56,5.27-0.55c1.55,0.01,3.34-0.02,3.34-0.02
							s-1.98,2.22-2.37,3.81s-3.32,3.05-5.16,2.38C296.03,55.14,295.89,55.24,295.18,54.61z"/>
						<path class="st13" d="M292.44,83.42c0,0,1.62-3.66,1.5-5.16s-0.12-1.5-0.12-1.5s0.04,1.65-0.71,3.33s-0.91,3.32-0.91,3.32
							s-2.25-2-2.26-3.99s1.85-3.28,2.81-4.5s2.03-2.65,2.03-2.65s0.54,2.93,1.55,4.21c1.01,1.28,0.36,4.49-1.3,5.54
							C293.38,83.07,293.37,83.24,292.44,83.42z"/>
						<path class="st13" d="M288.14,84.06c0,0-1.07-3.86-2.12-4.94s-1.05-1.08-1.05-1.08s1.08,1.25,1.56,3.02s1.41,3.14,1.41,3.14
							s-3.01-0.12-4.28-1.64s-0.65-3.71-0.69-5.25c-0.04-1.55-0.11-3.33-0.11-3.33s2.27,1.92,3.87,2.27s3.14,3.24,2.52,5.1
							S288.75,83.33,288.14,84.06z"/>
						<path class="st13" d="M294.18,86.32c0,0,3.88-0.97,4.99-1.98c1.11-1.02,1.11-1.02,1.11-1.02s-1.28,1.05-3.06,1.48
							s-3.18,1.33-3.18,1.33s0.2-3.01,1.76-4.24c1.56-1.23,3.72-0.56,5.27-0.55c1.55,0.01,3.34-0.02,3.34-0.02s-1.98,2.22-2.37,3.81
							c-0.39,1.59-3.32,3.05-5.16,2.38C295.03,86.84,294.88,86.95,294.18,86.32z"/>
						<path class="st13" d="M360.91,75.37c0,0,1.62-3.66,1.5-5.16c-0.12-1.5-0.12-1.5-0.12-1.5s0.04,1.65-0.71,3.33
							s-0.91,3.32-0.91,3.32s-2.25-2-2.26-3.99s1.85-3.28,2.81-4.5s2.03-2.65,2.03-2.65s0.54,2.93,1.55,4.21
							c1.01,1.28,0.36,4.49-1.3,5.54C361.84,75.02,361.84,75.19,360.91,75.37z"/>
						<path class="st13" d="M356.61,76.01c0,0-1.07-3.86-2.12-4.94s-1.05-1.08-1.05-1.08s1.08,1.25,1.56,3.02s1.41,3.14,1.41,3.14
							s-3.01-0.12-4.28-1.64c-1.27-1.53-0.65-3.71-0.69-5.25s-0.11-3.33-0.11-3.33s2.27,1.92,3.87,2.27s3.14,3.24,2.52,5.1
							C357.1,75.14,357.21,75.28,356.61,76.01z"/>
						<path class="st13" d="M362.64,78.27c0,0,3.88-0.97,4.99-1.98c1.11-1.02,1.11-1.02,1.11-1.02s-1.28,1.05-3.06,1.48
							c-1.79,0.44-3.18,1.33-3.18,1.33s0.2-3.01,1.76-4.24s3.72-0.56,5.27-0.55c1.55,0.01,3.34-0.02,3.34-0.02s-1.98,2.22-2.37,3.81
							s-3.32,3.05-5.16,2.38C363.49,78.79,363.35,78.89,362.64,78.27z"/>
						<path class="st13" d="M337.58,83.89c0,0,1.62-3.66,1.5-5.16s-0.12-1.5-0.12-1.5s0.04,1.65-0.71,3.33s-0.91,3.32-0.91,3.32
							s-2.25-2-2.26-3.99s1.85-3.28,2.81-4.5c0.95-1.22,2.03-2.65,2.03-2.65s0.54,2.93,1.55,4.21c1.01,1.28,0.36,4.49-1.3,5.54
							S338.51,83.72,337.58,83.89z"/>
						<path class="st13" d="M333.28,84.53c0,0-1.07-3.86-2.12-4.94s-1.05-1.08-1.05-1.08s1.08,1.25,1.56,3.02s1.41,3.14,1.41,3.14
							s-3.01-0.12-4.28-1.64s-0.65-3.71-0.69-5.25c-0.04-1.55-0.11-3.33-0.11-3.33s2.27,1.92,3.87,2.27s3.14,3.24,2.52,5.1
							C333.77,83.67,333.88,83.81,333.28,84.53z"/>
						<path class="st13" d="M339.31,86.8c0,0,3.88-0.97,4.99-1.98c1.11-1.02,1.11-1.02,1.11-1.02s-1.28,1.05-3.06,1.48
							c-1.79,0.44-3.18,1.33-3.18,1.33s0.2-3.01,1.76-4.24c1.56-1.23,3.72-0.56,5.27-0.55c1.55,0.01,3.34-0.02,3.34-0.02
							s-1.98,2.22-2.37,3.81c-0.39,1.59-3.32,3.05-5.16,2.38C340.16,87.32,340.02,87.42,339.31,86.8z"/>
						<path class="st13" d="M319.56,104.1c0,0,1.62-3.66,1.5-5.16c-0.12-1.5-0.12-1.5-0.12-1.5s0.04,1.65-0.71,3.33
							s-0.91,3.32-0.91,3.32s-2.25-2-2.26-3.99s1.85-3.28,2.81-4.5s2.03-2.65,2.03-2.65s0.54,2.93,1.55,4.21
							c1.01,1.28,0.36,4.49-1.3,5.54C320.49,103.75,320.49,103.93,319.56,104.1z"/>
						<path class="st13" d="M315.26,104.74c0,0-1.07-3.86-2.12-4.94s-1.05-1.08-1.05-1.08s1.08,1.25,1.56,3.02s1.41,3.14,1.41,3.14
							s-3.01-0.12-4.28-1.64c-1.27-1.53-0.65-3.71-0.69-5.25c-0.04-1.55-0.11-3.33-0.11-3.33s2.27,1.92,3.87,2.27
							s3.14,3.24,2.52,5.1C315.76,103.88,315.87,104.02,315.26,104.74z"/>
						<path class="st13" d="M321.29,107.01c0,0,3.88-0.97,4.99-1.98s1.11-1.02,1.11-1.02s-1.28,1.05-3.06,1.48s-3.18,1.33-3.18,1.33
							s0.2-3.01,1.76-4.24c1.56-1.23,3.72-0.56,5.27-0.55c1.55,0.01,3.34-0.02,3.34-0.02s-1.98,2.22-2.37,3.81
							c-0.39,1.59-3.32,3.05-5.16,2.38C322.14,107.53,322,107.63,321.29,107.01z"/>
						<path class="st13" d="M365.58,118.57c0,0,1.62-3.66,1.5-5.16c-0.12-1.5-0.12-1.5-0.12-1.5s0.04,1.65-0.71,3.33
							s-0.91,3.32-0.91,3.32s-2.25-2-2.26-3.99s1.85-3.28,2.81-4.5s2.03-2.65,2.03-2.65s0.54,2.93,1.55,4.21
							c1.01,1.28,0.36,4.49-1.3,5.54C366.51,118.22,366.51,118.39,365.58,118.57z"/>
						<path class="st13" d="M361.28,119.21c0,0-1.07-3.86-2.12-4.94s-1.05-1.08-1.05-1.08s1.08,1.25,1.56,3.02s1.41,3.14,1.41,3.14
							s-3.01-0.12-4.28-1.64c-1.27-1.53-0.65-3.71-0.69-5.25s-0.11-3.33-0.11-3.33s2.27,1.92,3.87,2.27s3.14,3.24,2.52,5.1
							S361.89,118.48,361.28,119.21z"/>
						<path class="st13" d="M367.31,121.47c0,0,3.88-0.97,4.99-1.98c1.11-1.02,1.11-1.02,1.11-1.02s-1.28,1.05-3.06,1.48
							c-1.79,0.44-3.18,1.33-3.18,1.33s0.2-3.01,1.76-4.24s3.72-0.56,5.27-0.55s3.34-0.02,3.34-0.02s-1.98,2.22-2.37,3.81
							s-3.32,3.05-5.16,2.38C368.16,121.99,368.02,122.1,367.31,121.47z"/>
					</g>
				</g>
				<g>
					<path class="st15" d="M223.54,63.56c0,0-3.68-1.58-4.61-2.76C218,59.62,218,59.62,218,59.62s1.09,1.24,2.78,1.96
						c1.69,0.72,2.92,1.82,2.92,1.82s0.29-3-1.05-4.47s-3.59-1.15-5.11-1.39c-1.53-0.24-3.29-0.56-3.29-0.56s1.59,2.51,1.73,4.14
						s2.79,3.54,4.71,3.18C222.62,63.94,222.74,64.06,223.54,63.56z"/>
					<path class="st15" d="M198.28,94.67c0,0-3.68-1.58-4.61-2.76c-0.93-1.18-0.93-1.18-0.93-1.18s1.09,1.24,2.78,1.96
						s2.92,1.82,2.92,1.82s0.29-3-1.05-4.47c-1.34-1.46-3.59-1.15-5.11-1.39c-1.53-0.24-3.29-0.56-3.29-0.56s1.59,2.51,1.73,4.14
						s2.79,3.54,4.71,3.18C197.36,95.04,197.48,95.17,198.28,94.67z"/>
					<path class="st15" d="M208.06,132.37c0,0-3.68-1.58-4.61-2.76c-0.93-1.18-0.93-1.18-0.93-1.18s1.09,1.24,2.78,1.96
						s2.92,1.82,2.92,1.82s0.29-3-1.05-4.47s-3.59-1.15-5.11-1.39c-1.53-0.24-3.29-0.56-3.29-0.56s1.59,2.51,1.73,4.14
						c0.13,1.63,2.79,3.54,4.71,3.18C207.14,132.74,207.26,132.87,208.06,132.37z"/>
					<path class="st15" d="M236.51,136.67c0,0-3.68-1.58-4.61-2.76c-0.93-1.18-0.93-1.18-0.93-1.18s1.09,1.24,2.78,1.96
						s2.92,1.82,2.92,1.82s0.29-3-1.05-4.47c-1.34-1.46-3.59-1.15-5.11-1.39c-1.53-0.24-3.29-0.56-3.29-0.56s1.59,2.51,1.73,4.14
						s2.79,3.54,4.71,3.18S235.71,137.17,236.51,136.67z"/>
					<path class="st15" d="M204.96,116.12c0,0-0.41-3.98,0.17-5.37s0.58-1.39,0.58-1.39s-0.55,1.56-0.36,3.38
						c0.19,1.83-0.17,3.44-0.17,3.44s2.76-1.2,3.39-3.09s-0.74-3.69-1.27-5.14s-1.11-3.15-1.11-3.15s-1.42,2.61-2.78,3.52
						c-1.36,0.91-1.74,4.16-0.49,5.67C204.18,115.5,204.13,115.67,204.96,116.12z"/>
					<path class="st15" d="M253.76,43.68c0,0,0.67-3.95,1.6-5.13s0.93-1.18,0.93-1.18s-0.95,1.35-1.25,3.17
						c-0.3,1.81-1.08,3.27-1.08,3.27s2.98-0.42,4.09-2.07c1.11-1.65,0.27-3.76,0.15-5.3s-0.23-3.33-0.23-3.33s-2.07,2.14-3.62,2.65
						c-1.55,0.51-2.79,3.54-1.98,5.33C253.17,42.87,253.08,43.02,253.76,43.68z"/>
					<path class="st15" d="M237.47,50.33c0,0-3.68-1.58-4.61-2.76c-0.93-1.18-0.93-1.18-0.93-1.18s1.09,1.24,2.78,1.96
						s2.92,1.82,2.92,1.82s0.29-3-1.05-4.47s-3.59-1.15-5.11-1.39s-3.29-0.56-3.29-0.56s1.59,2.51,1.73,4.14
						c0.13,1.63,2.79,3.54,4.71,3.18S236.67,50.84,237.47,50.33z"/>
				</g>
				<g>
					<path class="st15" d="M335.98,65.71c0,0,3.75-1.4,4.74-2.53c0.99-1.13,0.99-1.13,0.99-1.13s-1.15,1.18-2.88,1.82
						c-1.73,0.63-3.01,1.67-3.01,1.67s-0.14-3.01,1.27-4.41s3.64-0.97,5.18-1.14c1.54-0.17,3.31-0.4,3.31-0.4s-1.71,2.43-1.93,4.05
						c-0.21,1.62-2.96,3.4-4.86,2.94C336.88,66.13,336.75,66.25,335.98,65.71z"/>
					<path class="st15" d="M359.69,98.02c0,0,3.75-1.4,4.74-2.53s0.99-1.13,0.99-1.13s-1.15,1.18-2.88,1.82s-3.01,1.67-3.01,1.67
						s-0.14-3.01,1.27-4.41c1.41-1.4,3.64-0.97,5.18-1.14c1.54-0.17,3.31-0.4,3.31-0.4s-1.71,2.43-1.93,4.05
						c-0.21,1.62-2.96,3.4-4.86,2.94C360.59,98.44,360.46,98.56,359.69,98.02z"/>
					<path class="st15" d="M348.08,135.19c0,0,3.75-1.4,4.74-2.53s0.99-1.13,0.99-1.13s-1.15,1.18-2.88,1.82s-3.01,1.67-3.01,1.67
						s-0.14-3.01,1.27-4.41c1.41-1.4,3.64-0.97,5.18-1.14c1.54-0.17,3.31-0.4,3.31-0.4s-1.71,2.43-1.93,4.05
						c-0.21,1.62-2.96,3.4-4.86,2.94C348.98,135.62,348.85,135.74,348.08,135.19z"/>
					<path class="st15" d="M319.45,138.11c0,0,3.75-1.4,4.74-2.53s0.99-1.13,0.99-1.13s-1.15,1.18-2.88,1.82s-3.01,1.67-3.01,1.67
						s-0.14-3.01,1.27-4.41c1.41-1.4,3.64-0.97,5.18-1.14c1.54-0.17,3.31-0.4,3.31-0.4s-1.71,2.43-1.93,4.05
						c-0.21,1.62-2.96,3.4-4.86,2.94C320.36,138.53,320.23,138.65,319.45,138.11z"/>
					<path class="st15" d="M351.97,119.12c0,0,0.6-3.96,0.09-5.37s-0.51-1.41-0.51-1.41s0.48,1.58,0.19,3.4
						c-0.28,1.82,0,3.44,0,3.44s-2.7-1.34-3.24-3.25c-0.53-1.91,0.92-3.65,1.52-5.08c0.6-1.42,1.26-3.09,1.26-3.09
						s1.29,2.68,2.6,3.65s1.53,4.24,0.21,5.68C352.78,118.54,352.82,118.71,351.97,119.12z"/>
					<path class="st15" d="M306.77,44.38c0,0-0.48-3.97-1.35-5.2s-0.87-1.23-0.87-1.23s0.88,1.4,1.09,3.22
						c0.21,1.83,0.92,3.32,0.92,3.32s-2.96-0.57-3.99-2.27s-0.09-3.77,0.11-5.3s0.39-3.31,0.39-3.31s1.96,2.24,3.49,2.82
						c1.53,0.59,2.61,3.68,1.72,5.42S307.48,43.76,306.77,44.38z"/>
					<path class="st15" d="M322.71,51.82c0,0,3.75-1.4,4.74-2.53c0.99-1.13,0.99-1.13,0.99-1.13s-1.15,1.18-2.88,1.82
						c-1.73,0.63-3.01,1.67-3.01,1.67s-0.14-3.01,1.27-4.41s3.64-0.97,5.18-1.14c1.54-0.17,3.31-0.4,3.31-0.4s-1.71,2.43-1.93,4.05
						c-0.21,1.62-2.96,3.4-4.86,2.94C323.61,52.25,323.48,52.37,322.71,51.82z"/>
				</g>
			</g>
			<g>
				<g>
					<path class="st14" d="M324.01,200.62c1.6,0.24,3.26-0.59,4.85-0.86c8.23-1.41,17.09,1.95,24.38,5.57
						c7.9,3.92,7.39-6.46,23.92,0.32c11.31,4.64,16.24,3.84,18.22,2.86c-0.35,0.27-0.81,0.63-1.4,1.08
						c-2.61,2.02-20.18-4.34-26.68-3.66s-5.96,2.67-9.94,2.71c-1.91,0.02-4.7-1.29-7.77-2.64c-4.7-2.07-9.96-2.54-14.93-1.24
						c-0.58,0.15-1.16,0.28-1.72,0.35C329.49,205.57,324.01,200.62,324.01,200.62z"/>
				</g>
			</g>
			<path class="st16" d="M295.06,182.77c0,0,0.3,1.27,0.75,1.72s1.28,0.56,1.28,0.56l0,0c0,0,0.01,0.04,0.03,0.09
				c0.09,0.25,0.32,0.96,0.21,1.48c-0.14,0.64-0.23,1.47-0.68,2.01c-0.45,0.54-1.61,1.1-2.21,3.04c-0.6,1.94-1.24,5.93-1.35,7.29
				c-0.1,1.36,0.17,3.2,0.64,3.59s0.47,0.39,0.47,0.39s-0.57-0.35-1.57-0.38s-2.42-0.24-3.6-1.03s-2.61-1.24-3.11-1.62
				c-0.5-0.37-1.35-0.56-1.52-1.4s-0.84-1.59-1.3-2.39s-0.84-1.26-1.2-0.53c-0.36,0.73,0.27,2.31,0.74,3.41
				c0.46,1.09,0.21,1.17,1.59,2.06s1.74,1.2,2.76,1.61s2.74,1.77,3.74,1.98c1.01,0.22,2.6,0.59,4.55,0.58
				c1.95-0.01,4.92-0.49,5.61-0.21c0.69,0.28,2.41,0.37,2.7,0.24c0.22-0.1,0.29-0.15,0.32-0.16c-0.09,0.08-0.79,0.75-0.38,1.09
				c0.45,0.36,1.12,0.66,1.61,0.3c0.49-0.37,1.8-1.97,2.67-2.54s2.6-1.29,2.71-1.55c0.11-0.27,0.22-0.48,0.22-0.48l0,0l0,0
				c0.09,0.09,1.46,1.49,3.1,2.1c0.02,0.01,0.04,0.02,0.07,0.02c1.73,0.61,6.35,1.43,7.13,1.46s2.21-0.12,4.44-0.85
				c2.23-0.73,5.41-2.67,6.29-3.27c0.89-0.6,2.65-1.72,2.69-2.12c0.03-0.4-0.18-1.45-0.17-1.88c0.02-0.43-0.45-0.31-0.51-0.58
				c-0.06-0.26-0.11-1.26-0.67-1.8c-0.56-0.53-1.25-2.81-1.23-3.24c0.02-0.43-0.38-2.15-0.68-2.64s-0.54-1.51-0.77-2.12
				c-0.23-0.61-0.38-0.57-0.38-0.57s0.01-0.97-1.1-1.88c0,0,0.41-0.66,0.29-1.35c-0.11-0.68-0.3-1.19,0.16-1.5s0.53-1.95,0.33-2.44
				c-0.21-0.48-0.21-0.48-0.21-0.48s0.72-0.77,0.38-1.42c-0.34-0.66-0.97-0.94-1.07-1.25s-0.19-0.92-0.27-1.15s-0.17,0.09-0.34-0.46
				c-0.17-0.55-1.07-2.26-2.24-2.9c-0.58-0.32-1.31-0.5-1.91-0.66c-0.14-0.04-0.27-0.07-0.4-0.11c-0.02-0.01-0.04-0.01-0.06-0.02
				c-0.06-0.02-0.12-0.03-0.17-0.05c-0.02-0.01-0.04-0.01-0.05-0.02c-0.02-0.01-0.03-0.01-0.05-0.02c-0.06-0.02-0.12-0.05-0.17-0.07
				c-0.1-0.05-0.17-0.1-0.2-0.16l0,0c-0.01-0.02-0.02-0.04-0.02-0.06c-0.09-0.43-0.04-0.53-0.04-0.53s0.18,0.5,0.52,0.31
				c0,0-0.5-0.37-0.33-0.47c0,0,0,0,0.01-0.01c0,0,0,0,0.01-0.01c0,0,0.01-0.01,0.01-0.02l0,0c0.15-0.25,0.19-1.78-0.04-2.57
				c-0.25-0.83-0.75-1.62-0.9-2.34s-0.25-1.95-0.18-2.38c0,0,0.08,0.71,0.11,1.07c0.02,0.3,0.12,0.88,0.16,1.28
				c-0.02-0.28-0.05-0.76-0.07-1.08c-0.03-0.47-0.09-1.17-0.07-1.46s-0.23-2.16-0.64-2.94s-0.72-1.6-1.11-2.01
				c-0.38-0.41-1.21-0.4-1.21-0.4s0.3-0.17,0.7,0.01c-0.02-0.02-0.67-0.44-1.04,0.13c0,0-0.23-0.55-0.84-0.81l0.09,0.09
				c-0.03-0.02-0.54-0.41-0.95-0.42s-0.94,0.3-0.97,0.31c-0.09,0.01-0.26,0.04-0.59,0.11c-0.78,0.16-1.9,0.92-2.37,1.64
				s-1.06,1.65-1.24,2.52s-0.62,3.26-0.63,3.89c-0.01,0.61-0.09,1.58,0.37,2.09c-0.01,0.32-0.01,0.62,0,0.84
				c0.03,0.55-0.91,1.22-0.95,1.25c0.03-0.01,0.54-0.25,0.76-0.59c0,0,0.18,1.07-1.11,1.57c0,0,1.01,0.11,1.51-0.76
				c-0.01,0.04-0.43,1.38-1.67,1.59c0,0,0.59,0.04,1-0.33c0,0-0.05,0.41-0.42,0.67l0.84-0.3l-0.38,0.32l0,0
				c-0.03,0.01-0.69,0.15-1.22,0.25c-0.13,0.02-0.24,0.05-0.34,0.07c-0.06,0.01-0.12,0.02-0.16,0.03c-0.44,0.07-1.71,0.52-1.81,0.82
				s0.06,0.31-0.26,0.54c-0.27,0.2-0.39,0.35-0.42,0.4c-0.01,0.01-0.01,0.01-0.01,0.01s-0.37-1.12-0.4-1.33s-0.3-1.05-0.3-1.17
				s0.29,0.06,0.41-0.02s0.08-0.27,0.08-0.27s0.1,0.2,0.15-0.22s0.07-0.96-0.02-1.18c-0.1-0.22-0.41-0.59-0.6-0.53
				c-0.14,0.05-0.27,0.26-0.31,0.15c-0.01-0.03-0.01-0.08-0.01-0.17c0.02-0.41,0.19-0.9,0.05-1.09c-0.14-0.2-0.22-0.27-0.05-0.42
				c0.18-0.15,0.94-0.46,1.02-0.05s-0.18,1.2,0.01,1.8c0.18,0.6,0.56,1.05,0.76,0.76c0.2-0.29-0.06-0.99-0.06-1.26
				c0-0.27,0.26-0.56,0.25-0.9c0-0.34-0.25-0.55-0.16-0.86c0.09-0.3,0.32-0.3,0.36-0.72c0.04-0.43,0.07-1.19,0.17-1.38
				c0.09-0.2,0.2-0.69,0.05-0.95c-0.15-0.26-1.01-0.86-1.01-0.86s-0.09-0.65,0.02-0.7s0.19-0.24-0.24-0.88s-0.77-1.33-1.64-1.76
				c-0.87-0.43-1.5-0.55-1.92-0.7c0,0-0.43-0.38-0.81-0.23c-0.38,0.15-1.18,0.44-1.59,0.73c-0.4,0.29-0.71,1.21-1.12,1.45
				c-0.41,0.24-1.04,0.56-1.08,0.93s0.03,0.6-0.32,0.8c-0.35,0.21-0.46,0.94-0.57,1.37c-0.11,0.43-0.58,2.77-0.6,3.11
				c-0.02,0.35,1.1,1.15,1.32,1.33c0.23,0.18,0.23,0.18,0.23,0.18s-0.12,0.4-0.08,0.54c0.04,0.15-0.31-0.06-0.45,0.51
				c-0.15,0.56,0.38,1.05,0.38,1.05s-0.1,0.12-0.21,0.31c-0.13,0.22-0.28,0.54-0.31,0.85c-0.06,0.58-0.1,1.29-0.3,1.66
				c-0.2,0.38,0.01,0.48-0.05,0.72s-0.57,0.64-0.66,1.23s-0.39,1.09-0.5,1.4c-0.1,0.31-0.12,1.07-0.12,1.07s-0.02,0.09-0.05,0.21
				c-0.03,0.14-0.07,0.32-0.08,0.48c-0.02,0.29-0.61,0.64-0.7,1c-0.1,0.35-0.46,0.74-1.03,1 M311.72,164.54
				c0.1-0.5,0.13-0.65,0.14-0.69c-0.01,0.1-0.07,0.58-0.09,1.12c-0.01,0.16-0.02,0.37-0.03,0.59
				C311.69,165.2,311.67,164.81,311.72,164.54z M311.48,164.76c0.01-0.1,0.02-0.2,0.03-0.28c0,0.28,0.03,0.64,0.15,1.06
				c0.03,0.1,0.05,0.18,0.07,0.26c-0.01,0.2-0.02,0.4-0.02,0.6C311.62,166.13,311.42,165.43,311.48,164.76z"/>
			<path class="st17" d="M295.06,182.77c0,0,0.3,1.27,0.75,1.72s1.28,0.56,1.28,0.56l0,0c0,0,0.01,0.04,0.03,0.09
				c0.09,0.25,0.32,0.96,0.21,1.48c-0.14,0.64-0.23,1.47-0.68,2.01c-0.45,0.54-1.61,1.1-2.21,3.04c-0.6,1.94-1.24,5.93-1.35,7.29
				c-0.1,1.36,0.17,3.2,0.64,3.59s0.47,0.39,0.47,0.39s-0.57-0.35-1.57-0.38s-2.42-0.24-3.6-1.03s-2.61-1.24-3.11-1.62
				c-0.5-0.37-1.35-0.56-1.52-1.4s-0.84-1.59-1.3-2.39s-0.84-1.26-1.2-0.53c-0.36,0.73,0.27,2.31,0.74,3.41
				c0.46,1.09,0.21,1.17,1.59,2.06s1.74,1.2,2.76,1.61s2.74,1.77,3.74,1.98c1.01,0.22,2.6,0.59,4.55,0.58
				c1.95-0.01,4.92-0.49,5.61-0.21c0.69,0.28,2.41,0.37,2.7,0.24c0.22-0.1,0.29-0.15,0.32-0.16c-0.09,0.08-0.79,0.75-0.38,1.09
				c0.45,0.36,1.12,0.66,1.61,0.3c0.49-0.37,1.8-1.97,2.67-2.54s2.6-1.29,2.71-1.55c0.11-0.27,0.22-0.48,0.22-0.48l0,0l0,0
				c0.09,0.09,1.46,1.49,3.1,2.1c0.63-2.04,0.64-3.99,0.68-5.48c0.11-3.44-1.32-7.86-0.36-12.08c0.96-4.22,0.11-9.73-1.91-12.14
				c-1.21-1.44-2.14-2.18-2.58-3.28c-0.06,0.01-0.12,0.02-0.16,0.03c-0.44,0.07-1.71,0.52-1.81,0.82s0.06,0.31-0.26,0.54
				c-0.27,0.2-0.39,0.35-0.42,0.4c-0.01,0.01-0.01,0.01-0.01,0.01s-0.37-1.12-0.4-1.33s-0.3-1.05-0.3-1.17s0.29,0.06,0.41-0.02
				s0.08-0.27,0.08-0.27s0.1,0.2,0.15-0.22s0.07-0.96-0.02-1.18c-0.1-0.22-0.41-0.59-0.6-0.53c-0.14,0.05-0.27,0.26-0.31,0.15
				c-0.01-0.03-0.01-0.08-0.01-0.17c0.02-0.41,0.19-0.9,0.05-1.09c-0.14-0.2-0.22-0.27-0.05-0.42c0.18-0.15,0.94-0.46,1.02-0.05
				s-0.18,1.2,0.01,1.8c0.18,0.6,0.56,1.05,0.76,0.76c0.2-0.29-0.06-0.99-0.06-1.26c0-0.27,0.26-0.56,0.25-0.9
				c0-0.34-0.25-0.55-0.16-0.86c0.09-0.3,0.32-0.3,0.36-0.72c0.04-0.43,0.07-1.19,0.17-1.38c0.09-0.2,0.2-0.69,0.05-0.95
				c-0.15-0.26-1.01-0.86-1.01-0.86s-0.09-0.65,0.02-0.7s0.19-0.24-0.24-0.88s-0.77-1.33-1.64-1.76c-0.87-0.43-1.5-0.55-1.92-0.7
				c0,0-0.43-0.38-0.81-0.23c-0.38,0.15-1.18,0.44-1.59,0.73c-0.4,0.29-0.71,1.21-1.12,1.45c-0.41,0.24-1.04,0.56-1.08,0.93
				s0.03,0.6-0.32,0.8c-0.35,0.21-0.46,0.94-0.57,1.37c-0.11,0.43-0.58,2.77-0.6,3.11c-0.02,0.35,1.1,1.15,1.32,1.33
				c0.23,0.18,0.23,0.18,0.23,0.18s-0.12,0.4-0.08,0.54c0.04,0.15-0.31-0.06-0.45,0.51c-0.15,0.56,0.38,1.05,0.38,1.05
				s-0.1,0.12-0.21,0.31c-0.13,0.22-0.28,0.54-0.31,0.85c-0.06,0.58-0.1,1.29-0.3,1.66c-0.2,0.38,0.01,0.48-0.05,0.72
				s-0.57,0.64-0.66,1.23s-0.39,1.09-0.5,1.4c-0.1,0.31-0.12,1.07-0.12,1.07s-0.02,0.09-0.05,0.21c-0.03,0.14-0.07,0.32-0.08,0.48
				c-0.02,0.29-0.61,0.64-0.7,1c-0.1,0.35-0.42,0.73-0.99,0.98 M302.34,163.14c0.29-1.16,0.31-1.4,0.31-1.4l0.62,0.91
				c0,0,0.17-0.42,0.61-0.86s0.42,0.19,1.18,1.37c0.76,1.19,0.31,1.97,0.42,2.83c0.06,0.49,0.16,0.73,0.23,0.85l0.1,0.11
				c0,0-0.04-0.02-0.1-0.11l-0.28-0.31l-0.05,0.65c0,0-2.64-1.32-3.84-1.61c-1.19-0.29-1.7,0.77-1.7,0.77
				C300.07,164.85,302.06,164.29,302.34,163.14z M297.58,178.42c0,0,0.05-0.15,0.12-0.67c0.07-0.53-0.67-1.12-0.67-1.12l0.61-1.37
				c0.75-1.15,0.13,0.97,0.13,0.97s0.23-0.23,0.68-1.08c0.46-0.86-0.1-1.36,0.05-2.39c0.15-1.01,1.43-1.73,1.49-1.76
				c-0.05,0.02-0.84,0.35-1.01,0.32s-0.04-0.38,0.47-1.44s1.04-1.09,2.39-1.27c1.35-0.17,3.2,0.57,3.86,1.29
				c0.66,0.72,0.49,0.92,0.74,1.68c0.23,0.74-0.88,0.12-0.94,0.09c0.06,0.04,1.27,0.9,0.49,1.34c-0.8,0.45-2.24,1.58-3.02,2.31
				s-2.05,2.23-2.98,2.46S297.58,178.42,297.58,178.42z M308.41,203.09c-0.68,0.23-1.61,1.2-2.32,1.99
				c-0.71,0.8-1.47,0.45-1.45-0.12c0.02-0.57,1.65-1.8,1.65-1.8s0,0-0.41,0.09s-2.65,1.58-2.65,1.58l0.95-0.88
				c-0.03,0.02-0.47,0.27-1.32,0.62c-0.88,0.36-1.77,0.16-2.6,0.07c-0.83-0.09-2.33,0.13-2.69-0.03c-0.36-0.16-0.33-0.24-0.93-0.29
				s-1.49,0.35-1.5,0.46s-0.16,0.05-0.88-0.07c-0.73-0.12-1.85-0.25-3-0.65s-1.4-0.78-2.22-1.19s-3.13-1.69-3.9-2.03
				s-1.85-1.34-2.18-1.92s-0.85-2.43-0.85-2.43c0-1.05,0.29-0.47,0.7-0.37s0.57,0.93,1.03,1.79s-0.08,0.91-0.08,0.91
				s2.6,1.69,3.42,2.06c0.83,0.37,2.01,1.08,2.53,1.2s1.52,0.74,2.51,0.87c1,0.13,2.24,0.33,2.95,0.24
				c0.72-0.08,2.38-0.39,2.38-0.39c-2.57-0.85-3.88-2.77-4-4.97s0.83-4.04,1.01-5.2s1.16-2.11,1.58-2.37s0.93-1.98,1.25-2.97
				c0.07-0.21,0.11-0.42,0.14-0.62c0.09-0.76,0.78-1.31,1.55-1.24c1.3,0.12,3.11,0.24,4.34,0.13c2.11-0.19,2.79-0.92,3.11-0.64
				c0.32,0.28,1.39,0.02,1.68-0.26c0.29-0.28,0.35-0.07,0.65,0.55c0.3,0.61,0.23,1.66-0.07,2.69c-0.3,1.04-1.19,1.62-0.7,2.12
				c0.5,0.5,0.79,2.56,0.79,2.56s0.33-0.07,0.55,0.45s0.3,1.89-0.16,3.18s-0.17,1.27-0.59,2.35s-0.49,2.01-0.84,2.7
				s-0.92,1.14-0.92,1.14l1.18-0.52c0,0,0.08-0.22,0.47-0.84c0.4-0.61,0.69-0.04,0.78,0.18c0.09,0.21-0.24,0.63-0.26,0.64
				c0.01-0.01,0.05-0.04,0.42-0.36c0.42-0.36,0.35,0.24,0.45,0.61C310.08,202.49,309.1,202.86,308.41,203.09z"/>
			<path class="st18" d="M322.29,165.02c0-0.01-0.01-0.1-0.01-0.21C322.29,164.89,322.29,164.96,322.29,165.02z"/>
			<path class="st18" d="M303.93,205.11c0,0,0.84-0.78,1.88-1.58"/>
			<path class="st18" d="M309.06,199.62c0,0-0.29,1.28-1.77,2.59"/>
			<path class="st18" d="M309.68,200.37c0,0-0.58-0.44-1.02,0.2"/>
			<g>
				
					<ellipse transform="matrix(0.0825 -0.9966 0.9966 0.0825 114.0108 454.5099)" class="st19" cx="303.85" cy="165.34" rx="0.63" ry="0.18"/>
				
					<ellipse transform="matrix(0.0825 -0.9966 0.9966 0.0825 114.2021 452.6349)" class="st19" cx="302.93" cy="164.29" rx="0.25" ry="0.19"/>
				
					<ellipse transform="matrix(0.0825 -0.9966 0.9966 0.0825 109.3621 458.4244)" class="st19" cx="303.65" cy="169.82" rx="0.11" ry="0.17"/>
				<circle class="st19" cx="300.22" cy="169.37" r="0.23"/>
				<circle class="st19" cx="301.16" cy="169.3" r="0.09"/>
				
					<ellipse transform="matrix(0.0825 -0.9966 0.9966 0.0825 102.374 457.0136)" class="st19" cx="299.39" cy="172.91" rx="0.25" ry="0.2"/>
				<circle class="st19" cx="299.9" cy="173.99" r="0.16"/>
				
					<ellipse transform="matrix(0.0825 -0.9966 0.9966 0.0825 98.7398 457.6028)" class="st19" cx="297.89" cy="175.18" rx="0.31" ry="0.06"/>
				<circle class="st19" cx="298.4" cy="175.96" r="0.17"/>
				
					<ellipse transform="matrix(0.0825 -0.9966 0.9966 0.0825 96.088 459.8525)" class="st19" cx="297.79" cy="177.74" rx="0.37" ry="0.11"/>
				<circle class="st19" cx="299.92" cy="176.68" r="0.08"/>
				
					<ellipse transform="matrix(0.0825 -0.9966 0.9966 0.0825 99.8469 459.729)" class="st19" cx="299.6" cy="175.64" rx="0.24" ry="0.15"/>
				<circle class="st19" cx="301.06" cy="174.89" r="0.25"/>
				<circle class="st19" cx="304.08" cy="173.18" r="0.21"/>
				
					<ellipse transform="matrix(0.0825 -0.9966 0.9966 0.0825 108.8711 459.5379)" class="st19" cx="304.01" cy="170.64" rx="0.15" ry="0.26"/>
				<circle class="st19" cx="305.8" cy="173.66" r="0.13"/>
				
					<ellipse transform="matrix(0.0825 -0.9966 0.9966 0.0825 87.78 470.6017)" class="st19" cx="299.47" cy="187.63" rx="0.32" ry="0.28"/>
				
					<ellipse transform="matrix(0.0825 -0.9966 0.9966 0.0825 85.4511 471.2738)" class="st19" cx="298.67" cy="189.23" rx="0.15" ry="0.29"/>
				
					<ellipse transform="matrix(0.0825 -0.9966 0.9966 0.0825 84.9732 471.6337)" class="st19" cx="298.63" cy="189.67" rx="0.37" ry="0.29"/>
				<circle class="st19" cx="299.97" cy="190.94" r="0.18"/>
				
					<ellipse transform="matrix(0.0825 -0.9966 0.9966 0.0825 83.6707 474.3228)" class="st19" cx="299.44" cy="191.72" rx="0.2" ry="0.25"/>
				
					<ellipse transform="matrix(0.0825 -0.9966 0.9966 0.0825 80.2221 474.9706)" class="st19" cx="298.07" cy="193.92" rx="0.35" ry="0.32"/>
				
					<ellipse transform="matrix(0.0825 -0.9966 0.9966 0.0825 78.4288 475.6966)" class="st19" cx="297.57" cy="195.25" rx="0.32" ry="0.28"/>
				
					<ellipse transform="matrix(0.0825 -0.9966 0.9966 0.0825 76.2288 475.461)" class="st19" cx="296.34" cy="196.33" rx="0.26" ry="0.2"/>
				
					<ellipse transform="matrix(0.0825 -0.9966 0.9966 0.0825 75.4522 476.0846)" class="st19" cx="296.29" cy="197.06" rx="0.16" ry="0.27"/>
				
					<ellipse transform="matrix(0.0825 -0.9966 0.9966 0.0825 75.2192 474.2796)" class="st19" cx="295.19" cy="196.29" rx="0.32" ry="0.19"/>
				
					<ellipse transform="matrix(0.0825 -0.9966 0.9966 0.0825 76.6575 473.9012)" class="st19" cx="295.7" cy="195.32" rx="0.1" ry="0.19"/>
				
					<ellipse transform="matrix(0.0825 -0.9966 0.9966 0.0825 78.225 473.2966)" class="st19" cx="296.16" cy="194.16" rx="0.25" ry="0.29"/>
				
					<ellipse transform="matrix(0.0825 -0.9966 0.9966 0.0825 73.6609 475.4182)" class="st19" cx="295.03" cy="197.7" rx="0.44" ry="0.24"/>
				
					<ellipse transform="matrix(0.0825 -0.9966 0.9966 0.0825 74.0552 474.201)" class="st19" cx="294.57" cy="196.88" rx="0.21" ry="0.17"/>
				
					<ellipse transform="matrix(0.0825 -0.9966 0.9966 0.0825 73.0683 473.9021)" class="st19" cx="293.91" cy="197.27" rx="0.44" ry="0.08"/>
				
					<ellipse transform="matrix(0.0825 -0.9966 0.9966 0.0825 76.8335 476.8099)" class="st19" cx="297.37" cy="196.68" rx="0.11" ry="0.2"/>
				<circle class="st19" cx="299.01" cy="195.16" r="0.22"/>
				
					<ellipse transform="matrix(0.0825 -0.9966 0.9966 0.0825 80.5527 477.7662)" class="st19" cx="299.75" cy="195.13" rx="0.42" ry="0.21"/>
				
					<ellipse transform="matrix(0.0825 -0.9966 0.9966 0.0825 82.3608 476.5126)" class="st19" cx="299.97" cy="193.53" rx="0.55" ry="0.3"/>
				
					<ellipse transform="matrix(0.0825 -0.9966 0.9966 0.0825 81.6339 474.6048)" class="st19" cx="298.58" cy="192.97" rx="0.26" ry="0.21"/>
				
					<ellipse transform="matrix(0.0825 -0.9966 0.9966 0.0825 81.7626 473.1159)" class="st19" cx="297.83" cy="192.15" rx="0.16" ry="0.28"/>
				
					<ellipse transform="matrix(0.0825 -0.9966 0.9966 0.0825 79.8876 472.2196)" class="st19" cx="296.41" cy="192.72" rx="0.2" ry="0.3"/>
				
					<ellipse transform="matrix(0.0825 -0.9966 0.9966 0.0825 78.7146 470.5886)" class="st19" cx="294.93" cy="192.54" rx="0.25" ry="0.38"/>
				
					<ellipse transform="matrix(0.0825 -0.9966 0.9966 0.0825 77.4872 470.8488)" class="st19" cx="294.46" cy="193.34" rx="0.27" ry="0.03"/>
				
					<ellipse transform="matrix(0.0825 -0.9966 0.9966 0.0825 76.2913 471.6357)" class="st19" cx="294.29" cy="194.38" rx="0.22" ry="0.11"/>
				
					<ellipse transform="matrix(0.0825 -0.9966 0.9966 0.0825 81.2045 470.0333)" class="st19" cx="295.88" cy="190.91" rx="0.22" ry="0.19"/>
				
					<ellipse transform="matrix(0.0825 -0.9966 0.9966 0.0825 82.0849 469.992)" class="st19" cx="296.3" cy="190.42" rx="0.39" ry="0.18"/>
				
					<ellipse transform="matrix(0.0825 -0.9966 0.9966 0.0825 89.8482 472.1164)" class="st19" cx="301.33" cy="187.26" rx="0.35" ry="0.18"/>
				
					<ellipse transform="matrix(0.0825 -0.9966 0.9966 0.0825 91.5419 472.5853)" class="st19" cx="302.43" cy="186.58" rx="0.28" ry="0.24"/>
				
					<ellipse transform="matrix(0.0825 -0.9966 0.9966 0.0825 91.7759 473.8556)" class="st19" cx="303.24" cy="187.08" rx="0.33" ry="0.27"/>
				
					<ellipse transform="matrix(0.0825 -0.9966 0.9966 0.0825 90.0476 474.1599)" class="st19" cx="302.54" cy="188.18" rx="0.29" ry="0.16"/>
				
					<ellipse transform="matrix(0.0825 -0.9966 0.9966 0.0825 90.6259 475.2411)" class="st19" cx="303.42" cy="188.4" rx="0.4" ry="0.25"/>
				
					<ellipse transform="matrix(0.0825 -0.9966 0.9966 0.0825 88.6444 475.178)" class="st19" cx="302.39" cy="189.45" rx="0.28" ry="0.2"/>
				
					<ellipse transform="matrix(0.0825 -0.9966 0.9966 0.0825 86.6707 472.5869)" class="st19" cx="300" cy="189.22" rx="0.39" ry="0.27"/>
				
					<ellipse transform="matrix(0.0825 -0.9966 0.9966 0.0825 93.4111 475.2814)" class="st19" cx="304.83" cy="186.91" rx="0.29" ry="0.2"/>
				
					<ellipse transform="matrix(0.0825 -0.9966 0.9966 0.0825 92.2957 477.3363)" class="st19" cx="305.39" cy="188.54" rx="0.42" ry="0.25"/>
				
					<ellipse transform="matrix(0.0825 -0.9966 0.9966 0.0825 92.176 478.1572)" class="st19" cx="305.78" cy="189.02" rx="0.43" ry="0.17"/>
				
					<ellipse transform="matrix(0.0825 -0.9966 0.9966 0.0825 96.5366 478.7944)" class="st19" cx="308.3" cy="186.97" rx="0.75" ry="0.18"/>
				
					<ellipse transform="matrix(0.0825 -0.9966 0.9966 0.0825 94.0044 480.6844)" class="st19" cx="308.06" cy="189.29" rx="0.42" ry="0.05"/>
				
					<ellipse transform="matrix(0.0825 -0.9966 0.9966 0.0825 92.2186 481.94)" class="st19" cx="307.85" cy="190.89" rx="0.77" ry="0.2"/>
				
					<ellipse transform="matrix(0.0825 -0.9966 0.9966 0.0825 90.5581 482.2031)" class="st19" cx="307.16" cy="191.92" rx="0.39" ry="0.17"/>
				
					<ellipse transform="matrix(0.989 -0.1476 0.1476 0.989 -25.2413 47.5006)" class="st19" cx="307.45" cy="193.83" rx="0.19" ry="0.6"/>
				
					<ellipse transform="matrix(0.0825 -0.9966 0.9966 0.0825 89.2262 487.6488)" class="st19" cx="309.46" cy="195.37" rx="0.73" ry="0.12"/>
				
					<ellipse transform="matrix(0.0825 -0.9966 0.9966 0.0825 84.2425 481.8183)" class="st19" cx="303.8" cy="195.16" rx="0.48" ry="0.2"/>
				
					<ellipse transform="matrix(0.0825 -0.9966 0.9966 0.0825 85.809 482.8647)" class="st19" cx="305.15" cy="194.83" rx="0.33" ry="0.37"/>
				
					<ellipse transform="matrix(0.0825 -0.9966 0.9966 0.0825 86.9384 479.1777)" class="st19" cx="303.71" cy="192.37" rx="0.66" ry="0.24"/>
				
					<ellipse transform="matrix(0.0825 -0.9966 0.9966 0.0825 87.7304 478.2311)" class="st19" cx="303.59" cy="191.47" rx="0.59" ry="0.43"/>
				
					<ellipse transform="matrix(0.0825 -0.9966 0.9966 0.0825 95.2725 478.0208)" class="st19" cx="307.25" cy="187.27" rx="0.75" ry="0.47"/>
				
					<ellipse transform="matrix(0.0825 -0.9966 0.9966 0.0825 72.5738 480.8102)" class="st19" cx="297.42" cy="200.99" rx="0.28" ry="0.39"/>
				
					<ellipse transform="matrix(0.0825 -0.9966 0.9966 0.0825 74.2374 481.6309)" class="st19" cx="298.69" cy="200.5" rx="0.23" ry="0.16"/>
				
					<ellipse transform="matrix(0.0825 -0.9966 0.9966 0.0825 73.3929 482.8969)" class="st19" cx="298.96" cy="201.59" rx="0.26" ry="0.13"/>
				
					<ellipse transform="matrix(0.0825 -0.9966 0.9966 0.0825 72.7721 483.2598)" class="st19" cx="298.84" cy="202.11" rx="0.37" ry="0.5"/>
				
					<ellipse transform="matrix(0.0825 -0.9966 0.9966 0.0825 77.8149 483.9892)" class="st19" cx="301.76" cy="199.73" rx="0.33" ry="0.25"/>
				<circle class="st19" cx="301.93" cy="200.55" r="0.54"/>
				
					<ellipse transform="matrix(0.0825 -0.9966 0.9966 0.0825 79.3311 486.0097)" class="st19" cx="303.62" cy="199.92" rx="0.3" ry="0.39"/>
				
					<ellipse transform="matrix(0.0825 -0.9966 0.9966 0.0825 81.5859 486.7076)" class="st19" cx="305.12" cy="199.04" rx="0.33" ry="0.28"/>
				
					<ellipse transform="matrix(0.0825 -0.9966 0.9966 0.0825 82.9876 487.4876)" class="st19" cx="306.25" cy="198.67" rx="0.46" ry="0.27"/>
				<circle class="st19" cx="306.5" cy="200.24" r="0.37"/>
				
					<ellipse transform="matrix(0.0825 -0.9966 0.9966 0.0825 79.7688 488.5394)" class="st19" cx="305.21" cy="200.95" rx="0.19" ry="0.25"/>
				
					<ellipse transform="matrix(0.0825 -0.9966 0.9966 0.0825 79.0821 488.0908)" class="st19" cx="304.62" cy="201.1" rx="0.27" ry="0.23"/>
				
					<ellipse transform="matrix(0.0825 -0.9966 0.9966 0.0825 78.0453 488.9597)" class="st19" cx="304.58" cy="202.09" rx="0.11" ry="0.19"/>
				
					<ellipse transform="matrix(0.0825 -0.9966 0.9966 0.0825 76.089 488.3464)" class="st19" cx="303.27" cy="202.85" rx="0.16" ry="0.28"/>
				<circle class="st19" cx="301.95" cy="203.02" r="0.19"/>
				
					<ellipse transform="matrix(0.9834 -0.1812 0.1812 0.9834 -31.9562 57.9657)" class="st19" cx="301.29" cy="203.89" rx="0.16" ry="0.25"/>
				
					<ellipse transform="matrix(0.0825 -0.9966 0.9966 0.0825 71.7233 484.7375)" class="st19" cx="299.12" cy="203.42" rx="0.15" ry="0.25"/>
				<circle class="st19" cx="297.21" cy="203.37" r="0.18"/>
				
					<ellipse transform="matrix(0.0825 -0.9966 0.9966 0.0825 69.8033 483.7086)" class="st19" cx="297.6" cy="203.94" rx="0.18" ry="0.35"/>
				
					<ellipse transform="matrix(0.856 -0.517 0.517 0.856 -62.2221 182.0712)" class="st19" cx="295.7" cy="202.72" rx="0.25" ry="0.18"/>
				
					<ellipse transform="matrix(0.0825 -0.9966 0.9966 0.0825 69.271 478.4687)" class="st19" cx="294.49" cy="201.61" rx="0.13" ry="0.21"/>
				
					<ellipse transform="matrix(0.0825 -0.9966 0.9966 0.0825 68.8046 479.3787)" class="st19" cx="294.75" cy="202.32" rx="0.18" ry="0.23"/>
				
					<ellipse transform="matrix(0.0825 -0.9966 0.9966 0.0825 70.194 476.9109)" class="st19" cx="294.11" cy="200.33" rx="0.16" ry="0.12"/>
				
					<ellipse transform="matrix(0.0825 -0.9966 0.9966 0.0825 69.4675 477.428)" class="st19" cx="294.03" cy="200.99" rx="0.23" ry="0.15"/>
				<circle class="st19" cx="295.35" cy="200.98" r="0.24"/>
				
					<ellipse transform="matrix(0.0825 -0.9966 0.9966 0.0825 72.2635 478.4501)" class="st19" cx="295.98" cy="199.98" rx="0.06" ry="0.13"/>
				
					<ellipse transform="matrix(0.0825 -0.9966 0.9966 0.0825 72.7201 478.7924)" class="st19" cx="296.39" cy="199.9" rx="0.06" ry="0.11"/>
				<circle class="st19" cx="296.16" cy="201.89" r="0.25"/>
				<circle class="st19" cx="305.53" cy="197.47" r="0.11"/>
				<circle class="st19" cx="305.49" cy="196.32" r="0.12"/>
				<circle class="st19" cx="306.34" cy="197.1" r="0.14"/>
				
					<ellipse transform="matrix(0.0825 -0.9966 0.9966 0.0825 84.0338 483.9175)" class="st19" cx="304.83" cy="196.32" rx="0.07" ry="0.11"/>
				<circle class="st19" cx="305.73" cy="196.9" r="0.15"/>
				<circle class="st19" cx="306.18" cy="195.9" r="0.22"/>
				
					<ellipse transform="matrix(0.0825 -0.9966 0.9966 0.0825 85.574 486.517)" class="st19" cx="307.01" cy="196.78" rx="0.21" ry="0.24"/>
				
					<ellipse transform="matrix(0.0825 -0.9966 0.9966 0.0825 87.2678 486.7064)" class="st19" cx="307.96" cy="195.96" rx="0.14" ry="0.07"/>
				
					<ellipse transform="matrix(0.0825 -0.9966 0.9966 0.0825 86.9519 487.7521)" class="st19" cx="308.37" cy="196.65" rx="0.24" ry="0.16"/>
				
					<ellipse transform="matrix(0.0825 -0.9966 0.9966 0.0825 85.6539 490.0455)" class="st19" cx="308.97" cy="198.5" rx="0.22" ry="0.11"/>
				
					<ellipse transform="matrix(0.0825 -0.9966 0.9966 0.0825 87.8368 489.5574)" class="st19" cx="309.8" cy="197.07" rx="0.16" ry="0.08"/>
				
					<ellipse transform="matrix(0.989 -0.1476 0.1476 0.989 -25.1322 47.3308)" class="st19" cx="306.36" cy="193.01" rx="0.29" ry="0.64"/>
				<circle class="st19" cx="283.98" cy="199.1" r="0.25"/>
				
					<ellipse transform="matrix(0.0825 -0.9966 0.9966 0.0825 63.9767 473.3917)" class="st19" cx="289.09" cy="201.95" rx="0.04" ry="0.08"/>
				
					<ellipse transform="matrix(0.0825 -0.9966 0.9966 0.0825 65.9589 478.1762)" class="st19" cx="292.68" cy="203.27" rx="0.17" ry="0.21"/>
				
					<ellipse transform="matrix(0.0825 -0.9966 0.9966 0.0825 67.6657 480.0562)" class="st19" cx="294.55" cy="203.28" rx="0.14" ry="0.12"/>
				
					<ellipse transform="matrix(0.0825 -0.9966 0.9966 0.0825 67.6783 483.2584)" class="st19" cx="296.3" cy="204.87" rx="0.22" ry="0.66"/>
				<circle class="st19" cx="309.4" cy="200.8" r="0.25"/>
				
					<ellipse transform="matrix(0.9043 -0.4268 0.4268 0.9043 -57.2599 151.0696)" class="st19" cx="308.38" cy="203.27" rx="0.72" ry="0.16"/>
			</g>
			<path class="st18" d="M306.97,169.83c-0.05,0.42-0.15,0.22-0.15,0.22s0.04,0.19-0.08,0.27s-0.41-0.1-0.41,0.02
				c-0.17-0.34-1.76-2.23-4.08-2.44s-2.77,0.66-3.3,2.01c0,0-0.53-0.48-0.38-1.05c0.15-0.56,0.49-0.36,0.45-0.51
				c-0.04-0.15,0.08-0.54,0.08-0.54s0.45-1.07,1.41-1.37c0.96-0.3,4.21,0.12,5.52,1.83c0.04,0.11,0.16-0.1,0.31-0.15
				c0.18-0.06,0.5,0.3,0.6,0.53C307.05,168.87,307.02,169.41,306.97,169.83z"/>
			<path class="st19" d="M306.97,169.83c-0.05,0.42-0.15,0.22-0.15,0.22s0.04,0.19-0.08,0.27s-0.41-0.1-0.41,0.02
				c-0.17-0.34-1.76-2.23-4.08-2.44s-2.77,0.66-3.3,2.01c0,0-0.53-0.48-0.38-1.05c0.15-0.56,0.49-0.36,0.45-0.51
				c-0.04-0.15,0.08-0.54,0.08-0.54s0.45-1.07,1.41-1.37c0.96-0.3,4.21,0.12,5.52,1.83c0.04,0.11,0.16-0.1,0.31-0.15
				c0.18-0.06,0.5,0.3,0.6,0.53C307.05,168.87,307.02,169.41,306.97,169.83z"/>
			<path class="st18" d="M308.39,163.98c-0.09,0.2-0.13,0.95-0.17,1.38c-0.04,0.43-0.27,0.42-0.36,0.72s0.16,0.51,0.16,0.86
				c0,0.34-0.25,0.63-0.25,0.9c0,0.27,0.26,0.97,0.06,1.26s-0.58-0.16-0.76-0.76c-0.18-0.6,0.08-1.39-0.01-1.8s-0.85-0.1-1.02,0.05
				c-0.02,0.02-0.04,0.03-0.05,0.05c-0.07-0.1-0.1-0.19-0.1-0.19c-0.15-0.14,0.1-1.51-0.04-2.26s-0.85-1.96-1.57-2.62
				c-0.72-0.66-1.07,0.47-1.07,0.47s-0.02-0.93-0.08-1.24c-0.05-0.31-0.72,0.16-0.78,0.11s-0.17-0.24-0.34,0.26
				s-0.12,1.79-0.49,2.41c-0.37,0.62-1.56,1.81-1.86,2.2s-0.11,1.33-0.11,1.33c-0.26,0.27-0.44,0.69-0.44,0.69s0,0-0.23-0.18
				s-1.34-0.99-1.32-1.33c0.02-0.35,0.49-2.69,0.6-3.11c0.11-0.43,0.22-1.17,0.57-1.37c0.35-0.21,0.28-0.44,0.32-0.8
				s0.67-0.69,1.08-0.93c0.41-0.24,0.71-1.16,1.12-1.45c0.4-0.29,1.21-0.58,1.59-0.73s0.81,0.23,0.81,0.23
				c0.43,0.15,1.06,0.27,1.92,0.7c0.87,0.43,1.21,1.13,1.64,1.76s0.36,0.82,0.24,0.88s-0.02,0.7-0.02,0.7s0.86,0.6,1.01,0.86
				C308.59,163.29,308.48,163.78,308.39,163.98z"/>
			<path class="st19" d="M308.39,163.98c-0.09,0.2-0.13,0.95-0.17,1.38c-0.03,0.38-0.22,0.42-0.32,0.63l0,0
				c-0.01,0.03-0.03,0.06-0.04,0.09c-0.09,0.3,0.16,0.51,0.16,0.86c0,0.34-0.25,0.63-0.25,0.9c0,0.27,0.26,0.97,0.06,1.26
				s-0.58-0.16-0.76-0.76c-0.18-0.6,0.08-1.39-0.01-1.8s-0.85-0.1-1.02,0.05c-0.02,0.02-0.04,0.03-0.05,0.05
				c-0.07-0.1-0.1-0.19-0.1-0.19c-0.15-0.14,0.1-1.51-0.04-2.26s-0.85-1.96-1.57-2.62c-0.72-0.66-1.07,0.47-1.07,0.47
				s-0.02-0.93-0.08-1.24c-0.05-0.31-0.72,0.16-0.78,0.11s-0.17-0.24-0.34,0.26s-0.12,1.79-0.49,2.41c-0.37,0.62-1.56,1.81-1.86,2.2
				s-0.11,1.33-0.11,1.33c-0.26,0.27-0.44,0.69-0.44,0.69s0,0-0.23-0.18s-1.34-0.99-1.32-1.33c0.02-0.35,0.49-2.69,0.6-3.11
				c0.11-0.43,0.22-1.17,0.57-1.37c0.35-0.21,0.28-0.44,0.32-0.8s0.67-0.69,1.08-0.93c0.41-0.24,0.71-1.16,1.12-1.45
				c0.4-0.29,1.21-0.58,1.59-0.73s0.81,0.23,0.81,0.23c0.43,0.15,1.06,0.27,1.92,0.7c0.18,0.09,0.34,0.19,0.48,0.3
				c0.54,0.42,0.82,0.96,1.16,1.46c0.43,0.63,0.36,0.82,0.24,0.88s-0.02,0.7-0.02,0.7s0.86,0.6,1.01,0.86
				C308.59,163.29,308.48,163.78,308.39,163.98z"/>
			<path class="st18" d="M308.39,163.98c-0.09,0.2-0.13,0.95-0.17,1.38c-0.03,0.38-0.22,0.42-0.32,0.63
				c-0.01-0.04-0.02-0.09-0.05-0.17c-0.13-0.33-0.45-1.79-0.63-3.13c-0.18-1.35-1.17-3.56-1.17-3.56c0.54,0.42,0.82,0.96,1.16,1.46
				c0.43,0.63,0.36,0.82,0.24,0.88s-0.02,0.7-0.02,0.7s0.86,0.6,1.01,0.86C308.59,163.29,308.48,163.78,308.39,163.98z"/>
			<path class="st19" d="M308.39,163.98c-0.09,0.2-0.13,0.95-0.17,1.38c-0.03,0.38-0.22,0.42-0.32,0.63l0,0
				c-0.01,0.03-0.03,0.06-0.04,0.09c-0.09,0.3,0.16,0.51,0.16,0.86c0,0.34-0.25,0.63-0.25,0.9c0,0.27,0.26,0.97,0.06,1.26
				s-0.58-0.16-0.76-0.76c-0.18-0.6,0.08-1.39-0.01-1.8s-0.85-0.1-1.02,0.05c-0.02,0.02-0.04,0.03-0.05,0.05
				c-0.07-0.1-0.1-0.19-0.1-0.19c-0.15-0.14,0.1-1.51-0.04-2.26s-0.85-1.96-1.57-2.62c-0.72-0.66-1.07,0.47-1.07,0.47
				s-0.02-0.93-0.08-1.24c-0.05-0.31-0.72,0.16-0.78,0.11s-0.17-0.24-0.34,0.26s-0.12,1.79-0.49,2.41c-0.37,0.62-1.56,1.81-1.86,2.2
				s-0.11,1.33-0.11,1.33c-0.26,0.27-0.44,0.69-0.44,0.69s0,0-0.23-0.18s-1.34-0.99-1.32-1.33c0.02-0.35,0.49-2.69,0.6-3.11
				c0.11-0.43,0.22-1.17,0.57-1.37c0.35-0.21,0.28-0.44,0.32-0.8s0.67-0.69,1.08-0.93c0.41-0.24,0.71-1.16,1.12-1.45
				c0.4-0.29,1.21-0.58,1.59-0.73s0.81,0.23,0.81,0.23c0.43,0.15,1.06,0.27,1.92,0.7c0.18,0.09,0.34,0.19,0.48,0.3
				c0.54,0.42,0.82,0.96,1.16,1.46c0.43,0.63,0.36,0.82,0.24,0.88s-0.02,0.7-0.02,0.7s0.86,0.6,1.01,0.86
				C308.59,163.29,308.48,163.78,308.39,163.98z"/>
			<path class="st20" d="M308.39,163.98c-0.09,0.2-0.13,0.95-0.17,1.38c-0.03,0.38-0.22,0.42-0.32,0.63
				c-0.01-0.04-0.02-0.09-0.05-0.17c-0.13-0.33-0.45-1.79-0.63-3.13c-0.18-1.35-1.17-3.56-1.17-3.56c0.54,0.42,0.82,0.96,1.16,1.46
				c0.43,0.63,0.36,0.82,0.24,0.88s-0.02,0.7-0.02,0.7s0.86,0.6,1.01,0.86C308.59,163.29,308.48,163.78,308.39,163.98z"/>
			<path class="st18" d="M308.39,163.98c-0.09,0.2-0.13,0.95-0.17,1.38c-0.03,0.38-0.22,0.42-0.32,0.63
				c-0.01-0.04-0.02-0.09-0.05-0.17c-0.13-0.33-0.45-1.79-0.63-3.13c-0.18-1.35-1.17-3.56-1.17-3.56c0.54,0.42,0.82,0.96,1.16,1.46
				c0.43,0.63,0.36,0.82,0.24,0.88s-0.02,0.7-0.02,0.7s0.86,0.6,1.01,0.86C308.59,163.29,308.48,163.78,308.39,163.98z"/>
			<path class="st18" d="M295.11,182.78c0,0,0.3,1.27,0.75,1.72s1.28,0.56,1.28,0.56l0,0c0,0,0.01,0.04,0.03,0.09
				c0.09,0.25,0.32,0.96,0.21,1.48c-0.14,0.64-0.23,1.47-0.68,2.01c-0.45,0.54-1.61,1.1-2.21,3.04c-0.6,1.94-1.24,5.93-1.35,7.29
				c-0.1,1.36,0.17,3.2,0.64,3.59s0.47,0.39,0.47,0.39s-0.57-0.35-1.57-0.38s-2.42-0.24-3.6-1.03s-2.61-1.24-3.11-1.62
				c-0.5-0.37-1.35-0.56-1.52-1.4s-0.84-1.59-1.3-2.39s-0.84-1.26-1.2-0.53c-0.36,0.73,0.27,2.31,0.74,3.41
				c0.46,1.09,0.21,1.17,1.59,2.06s1.74,1.2,2.76,1.61c1.02,0.41,2.74,1.77,3.74,1.98c1.01,0.22,2.6,0.59,4.55,0.58
				c1.95-0.01,4.92-0.49,5.61-0.21c0.69,0.28,2.41,0.37,2.7,0.24c0.22-0.1,0.29-0.15,0.32-0.16c-0.09,0.08-0.79,0.75-0.38,1.09
				c0.45,0.36,1.12,0.66,1.61,0.3c0.49-0.37,1.8-1.97,2.67-2.54c0.87-0.56,2.6-1.29,2.71-1.55c0.11-0.27,0.22-0.48,0.22-0.48l0,0
				l0,0c0.09,0.09,1.49,1.53,3.17,2.12c1.73,0.61,6.35,1.43,7.13,1.46c0.78,0.03,2.21-0.12,4.44-0.85c2.23-0.73,5.41-2.67,6.29-3.27
				c0.89-0.6,2.65-1.72,2.69-2.12c0.03-0.4-0.18-1.45-0.17-1.88s-0.45-0.31-0.51-0.58c-0.06-0.26-0.11-1.26-0.67-1.8
				c-0.56-0.53-1.25-2.81-1.23-3.24c0.02-0.43-0.38-2.15-0.68-2.64s-0.54-1.51-0.77-2.12c-0.23-0.61-0.38-0.57-0.38-0.57
				s0.01-0.97-1.1-1.88c0,0,0.41-0.66,0.29-1.35c-0.11-0.68-0.3-1.19,0.16-1.5s0.53-1.95,0.33-2.44c-0.21-0.48-0.21-0.48-0.21-0.48
				s0.72-0.77,0.38-1.42c-0.34-0.66-0.97-0.94-1.07-1.25s-0.19-0.92-0.27-1.15s-0.17,0.09-0.34-0.46c-0.17-0.55-1.07-2.26-2.24-2.9
				c-0.58-0.32-1.31-0.5-1.91-0.66c-0.14-0.04-0.27-0.07-0.4-0.11c-0.02-0.01-0.04-0.01-0.06-0.02c-0.06-0.02-0.12-0.03-0.17-0.05
				c-0.02-0.01-0.04-0.01-0.05-0.02c-0.02-0.01-0.03-0.01-0.05-0.02c-0.06-0.02-0.12-0.05-0.17-0.07c-0.1-0.05-0.17-0.1-0.2-0.16
				l0,0c-0.01-0.02-0.02-0.04-0.02-0.06c-0.09-0.43-0.04-0.53-0.04-0.53s0.18,0.5,0.52,0.31c0,0-0.5-0.37-0.33-0.47
				c0,0,0,0,0.01-0.01c0,0,0,0,0.01-0.01c0,0,0.01-0.01,0.01-0.02l0,0c0.15-0.25,0.19-1.78-0.04-2.57c-0.25-0.83-0.75-1.62-0.9-2.34
				s-0.25-1.95-0.18-2.38c0,0,0.08,0.71,0.11,1.07c0.02,0.3,0.12,0.88,0.16,1.28c-0.02-0.28-0.05-0.76-0.07-1.08
				c-0.03-0.47-0.09-1.17-0.07-1.46c0.02-0.29-0.23-2.16-0.64-2.94s-0.72-1.6-1.11-2.01c-0.38-0.41-1.21-0.4-1.21-0.4
				s0.3-0.17,0.7,0.01c-0.02-0.02-0.67-0.44-1.04,0.13c0,0-0.23-0.55-0.84-0.81l0.09,0.09c-0.03-0.02-0.54-0.41-0.95-0.42
				s-0.94,0.3-0.97,0.31c-0.09,0.01-0.26,0.04-0.59,0.11c-0.78,0.16-1.9,0.92-2.37,1.64s-1.06,1.65-1.24,2.52
				c-0.17,0.87-0.62,3.26-0.63,3.89c-0.01,0.61-0.09,1.58,0.37,2.09c-0.01,0.32-0.01,0.62,0,0.84c0.03,0.55-0.91,1.22-0.95,1.25
				c0.03-0.01,0.54-0.25,0.76-0.59c0,0,0.18,1.07-1.11,1.57c0,0,1.01,0.11,1.51-0.76c-0.01,0.04-0.43,1.38-1.67,1.59
				c0,0,0.59,0.04,1-0.33c0,0-0.05,0.41-0.42,0.67l0.84-0.3l-0.38,0.32l0,0c-0.03,0.01-0.69,0.15-1.22,0.25
				c-0.2,0.04-0.39,0.07-0.5,0.09c-0.44,0.07-1.71,0.52-1.81,0.82s0.06,0.31-0.26,0.54c-0.27,0.2-0.39,0.35-0.42,0.4
				c-0.01,0.01-0.01,0.01-0.01,0.01s-0.37-1.12-0.4-1.33s-0.3-1.05-0.3-1.17s0.29,0.06,0.41-0.02s0.08-0.27,0.08-0.27
				s0.1,0.2,0.15-0.22s0.07-0.96-0.02-1.18c-0.1-0.22-0.41-0.59-0.6-0.53c-0.14,0.05-0.27,0.26-0.31,0.15
				c-0.01-0.03-0.01-0.08-0.01-0.17c0.02-0.41,0.19-0.9,0.05-1.09c-0.13-0.17-0.21-0.25-0.1-0.37c0.01-0.02,0.03-0.03,0.05-0.05
				c0.18-0.15,0.94-0.46,1.02-0.05s-0.18,1.2,0.01,1.8c0.18,0.6,0.56,1.05,0.76,0.76c0.2-0.29-0.06-0.99-0.06-1.26
				c0-0.27,0.26-0.56,0.25-0.9s-0.25-0.55-0.16-0.86c0.09-0.3,0.32-0.3,0.36-0.72c0.04-0.43,0.07-1.19,0.17-1.38
				c0.09-0.2,0.2-0.69,0.05-0.95c-0.15-0.26-1.01-0.86-1.01-0.86s-0.09-0.65,0.02-0.7s0.19-0.24-0.24-0.88
				c-0.43-0.63-0.77-1.33-1.64-1.76c-0.87-0.43-1.5-0.55-1.92-0.7c0,0-0.43-0.38-0.81-0.23s-1.18,0.44-1.59,0.73
				c-0.4,0.29-0.71,1.21-1.12,1.45c-0.41,0.24-1.04,0.56-1.08,0.93c-0.04,0.36,0.03,0.6-0.32,0.8c-0.35,0.21-0.46,0.94-0.57,1.37
				c-0.11,0.43-0.58,2.77-0.6,3.11c-0.02,0.35,1.1,1.15,1.32,1.33c0.23,0.18,0.23,0.18,0.23,0.18s-0.12,0.4-0.08,0.54
				c0.04,0.15-0.31-0.06-0.45,0.51s0.38,1.05,0.38,1.05s-0.1,0.12-0.21,0.31c-0.13,0.22-0.28,0.54-0.31,0.85
				c-0.06,0.58-0.1,1.29-0.3,1.66c-0.2,0.38,0.01,0.48-0.05,0.72s-0.57,0.64-0.66,1.23s-0.39,1.09-0.5,1.4
				c-0.1,0.31-0.12,1.07-0.12,1.07s-0.02,0.09-0.05,0.21c-0.03,0.14-0.07,0.32-0.08,0.48c-0.02,0.29-0.61,0.64-0.7,1
				c-0.1,0.35-0.4,0.68-0.98,0.94 M311.78,164.54c0.1-0.5,0.13-0.65,0.14-0.69c-0.01,0.1-0.07,0.58-0.09,1.12
				c-0.01,0.16-0.02,0.37-0.03,0.59C311.75,165.2,311.72,164.81,311.78,164.54z M311.54,164.77c0.01-0.1,0.02-0.2,0.03-0.28
				c0,0.28,0.03,0.64,0.15,1.06c0.03,0.1,0.05,0.18,0.07,0.26c-0.01,0.2-0.02,0.4-0.02,0.6
				C311.67,166.13,311.47,165.44,311.54,164.77z"/>
			<path class="st13" d="M294.92,179.87c0.57-0.26,0.96-0.66,1.06-1.02c0.1-0.35,0.68-0.7,0.7-1c0.01-0.15,0.05-0.34,0.08-0.48
				c0,0,0.28-0.33,0.32-0.06s0.31,0.75,0.19,1.06c-0.12,0.29-0.51,0.66-0.53,0.69c0.04-0.02,1.49-0.56,2.54-0.57
				c0.01,0,0.01,0,0.02,0c0.73-0.01,1.03-0.23,1.25-0.43c0.1-0.09,0.18-0.17,0.27-0.23c0.31-0.19,1.68-1.46,2.29-1.85
				c0.61-0.39,2.48-1.89,2.97-2.18s0.96-0.97,0.96-0.97s0,0,0.01-0.01c0.03-0.04,0.16-0.2,0.42-0.4c0.32-0.23,0.16-0.24,0.26-0.54
				c0.1-0.3,1.38-0.75,1.81-0.82c0.12-0.02,0.3-0.05,0.5-0.09s0.42-0.08,0.62-0.13c0.32-0.07,0.59-0.12,0.6-0.13l0,0
				c0,0,0.77,0.05,0.89,0.09c0.12,0.04,0.59,0.13,0.92-0.01c0.33-0.13,1.48-0.4,1.96-0.17s0.89,0.67,1.67,0.55s2.96-0.01,3.34-0.02
				c0.38-0.02,0.42-0.29,0.42-0.29s0.88,1.92,1.24,2.24c0,0,0-0.33-0.32-0.84c-0.32-0.5-0.74-1.53-0.74-1.53s1.43,0.32,1.82,0.15
				c0.39-0.17,0.7-0.25,0.7-0.25c0.2,0.1,0.53,0.19,0.9,0.29c0.6,0.16,1.33,0.34,1.91,0.66c1.17,0.64,2.07,2.35,2.24,2.9
				c0.17,0.55,0.27,0.22,0.34,0.46s0.17,0.84,0.27,1.15c0.1,0.31,0.73,0.59,1.07,1.25s-0.38,1.42-0.38,1.42s0,0,0.21,0.48
				s0.14,2.12-0.33,2.44s-0.28,0.81-0.16,1.5c0.11,0.68-0.29,1.35-0.29,1.35c1.11,0.91,1.1,1.88,1.1,1.88s0.16-0.03,0.38,0.57
				c0.23,0.61,0.47,1.63,0.77,2.12s0.69,2.22,0.68,2.64c-0.02,0.43,0.68,2.71,1.23,3.24c0.56,0.53,0.61,1.53,0.67,1.8
				c0.06,0.26,0.53,0.15,0.51,0.58c-0.02,0.43,0.2,1.48,0.17,1.88c-0.03,0.4-1.8,1.52-2.69,2.12c-0.89,0.6-4.06,2.55-6.29,3.27
				c-2.23,0.73-3.66,0.88-4.44,0.85s-5.4-0.85-7.13-1.46c-1.67-0.59-3.08-2.03-3.17-2.12l0,0l0,0c0,0-1.26-1.85-1.4-1.98
				c-0.14-0.13-0.3-0.33-0.3-0.33s0.54-1.46,0.82-2.38s0.4-1.87,0.31-2.85c-0.08-0.98-0.52-2.4-0.75-2.73
				c-0.23-0.32-0.94-0.72-0.83-1.9s0.87-2.74,0.92-3.27c0.04-0.53-0.78-2.55-0.78-2.55l-0.02,0.23c0,0-0.52-0.3-1.35,0.19
				c-0.83,0.49-0.83,0.21-0.83,0.21s-2.46,0.62-4.53,0.79c-0.56,0.05-1.18,0.04-1.78,0.02c-1.63-0.07-3.15-0.33-3.15-0.33
				s-0.84-0.12-1.28-0.56c-0.45-0.45-0.75-1.72-0.75-1.72"/>
			<path class="st21" d="M334.31,197.39c0.02-0.43-0.45-0.31-0.51-0.58c-0.06-0.26-0.11-1.26-0.67-1.8
				c-0.56-0.53-1.25-2.81-1.23-3.24c0.02-0.43-0.38-2.15-0.68-2.64s-0.54-1.51-0.77-2.12c-0.23-0.61-0.38-0.57-0.38-0.57
				s0.01-0.97-1.1-1.88c0,0,0.41-0.66,0.29-1.35c-0.11-0.68-0.3-1.19,0.16-1.5s0.53-1.95,0.33-2.44c-0.21-0.48-0.21-0.48-0.21-0.48
				s0.72-0.77,0.38-1.42c-0.34-0.66-0.97-0.94-1.07-1.25s-0.19-0.92-0.27-1.15s-0.17,0.09-0.34-0.46c-0.17-0.55-1.07-2.26-2.24-2.9
				c-0.58-0.32-1.31-0.5-1.91-0.66c-0.37-0.1-0.7-0.19-0.9-0.29c0,0-0.31,0.08-0.7,0.25s-1.82-0.15-1.82-0.15s0.42,1.02,0.74,1.53
				c0.32,0.5,0.32,0.84,0.32,0.84c-0.36-0.32-1.24-2.24-1.24-2.24s-0.04,0.27-0.42,0.29c-0.38,0.02-2.56-0.09-3.34,0.02
				s-1.18-0.32-1.67-0.55s-1.63,0.04-1.96,0.17s-0.8,0.05-0.92,0.01c-0.12-0.04-0.89-0.09-0.89-0.09l0,0c-0.02,0-0.28,0.06-0.6,0.13
				c-0.2,0.04-0.42,0.09-0.62,0.13c-0.2,0.04-0.39,0.07-0.5,0.09c-0.44,0.07-1.71,0.52-1.81,0.82s0.06,0.31-0.26,0.54
				c-0.27,0.2-0.39,0.35-0.42,0.4c-0.01,0.01-0.01,0.01-0.01,0.01s-0.47,0.68-0.96,0.97s-2.35,1.79-2.97,2.18
				c-0.61,0.39-1.98,1.65-2.29,1.85c-0.09,0.06-0.18,0.14-0.27,0.23c-0.22,0.2-0.53,0.42-1.25,0.43c-0.1,1.63,0.12,3.75,0.85,6.51
				c0.03,0.13,0.07,0.25,0.1,0.38c0.6,0.03,1.22,0.03,1.78-0.02c2.07-0.17,4.53-0.79,4.53-0.79s0,0.28,0.83-0.21
				s1.35-0.19,1.35-0.19l0.02-0.23c0,0,0.82,2.02,0.78,2.55s-0.81,2.1-0.92,3.27s0.61,1.57,0.83,1.9c0.23,0.32,0.67,1.74,0.75,2.73
				c0.08,0.98-0.03,1.92-0.31,2.85s-0.82,2.38-0.82,2.38s0.16,0.2,0.3,0.33c0.14,0.13,1.4,1.98,1.4,1.98l0,0l0,0
				c0.09,0.09,1.49,1.53,3.17,2.12c1.73,0.61,6.35,1.43,7.13,1.46s2.21-0.12,4.44-0.85c2.23-0.73,5.41-2.67,6.29-3.27
				c0.89-0.6,2.65-1.72,2.69-2.12C334.51,198.87,334.29,197.82,334.31,197.39z M306.51,184.21c-0.31-0.1-1.37-2.05-2.68-3.61
				s-2.69-2.58-2.69-2.58l0.33-0.26c0,0,1.41,1.19,1.88,1.63c0.47,0.43,2.14,2.33,3.24,3.87
				C307.69,184.8,306.82,184.31,306.51,184.21z M309.23,184.55c-0.03-0.19-0.61-1.33-0.61-1.33l-0.35,0.68l-0.41-0.03
				c0,0-1.47-2.24-2.71-3.5s-3.24-3.11-3.24-3.11c0.68-0.69,3.19-2.53,4.16-3.03s1.2-1.16,1.39-1.34s0.59-0.53,0.54-0.83
				s1.1-0.68,1.27-0.63c0.17,0.05,0.8,1.16,0.76,1.63c-0.04,0.48,0.36,1.6,0.86,2.45c0.5,0.84,0.51,1.16,0.55,1.8
				c0.04,0.64,0.28,3.26-0.23,1.27c-0.5-1.96-2.43-3.97-2.47-4.01c0.03,0.06,1.79,3.64,2.1,4.61c0.31,0.98,0.43,1.58-0.09,2.77
				C310.22,183.13,309.27,184.74,309.23,184.55z M333.45,199.86c-0.29,0.58-1.46,0.99-1.49,1c0.02-0.03,0.56-0.95,0.56-1
				s-1.64,1.47-2.52,2.12c-0.88,0.64-1.75,1.1-2.71,1.34c-0.96,0.24-1.33,0.33-2.01,0.56s-2.18,1.19-3.01,1.42
				c-0.83,0.24-2.59-0.09-3.16-0.26s-3.31-0.46-4.88-1.08s-3.37-2.18-3.77-3.07c-0.4-0.89-0.2-1.86-0.13-2.57s0.24-2.87,0.16-3.96
				c-0.08-1.08-0.57-2.34-1.1-3.15s-0.31-0.85-0.21-1.64s0.5-2,0.61-2.66c0.12-0.66-0.24-1.87-0.24-1.87s1.66-1.61,1.74-2.21
				c0.09-0.6,0.47-1.81,0.53-2.62c0.07-0.81,0.01-2.07,0.17-3.03c0.17-0.96-0.22-1.64-0.87-2.42s-0.24-1.26-0.28-2.17
				c-0.04-0.9-0.87-1.3-0.87-1.3c1.06-0.58,1.98-0.05,2.95-0.15s1.74-0.3,2.19,0.47c0.46,0.77,2.01,0.28,3.5,0.11
				s1.65-0.08,1.7,0.14s0.72,1.46,1.08,1.92c0.37,0.46,0.85,1.01,1.16,1.62c0.3,0.61,0.57,1.07,0.57,1.07s-0.81-2.05-0.97-2.86
				s-0.92-2.56-0.93-2.59c0,0,0.02,0.01,0.1,0.07c0.1,0.07,1.71-0.16,1.71-0.16s2.21,0.55,3.45,1.34c1.24,0.79,1.73,2.83,1.73,2.83
				l-1.12-1.78l0.5,1.76c-1-1.87-2.76-2.84-2.76-2.84s1.9,2.33,2.84,3.81c0.94,1.49,1.39,4.58,1.39,4.58
				c0.36-1.54-0.51-2.89-0.56-3.55s0.53-0.4,0.92,0.36s-0.26,1.4-0.26,1.4s0.51,1.23,0.28,1.82c-0.23,0.59-0.59,0.12-0.59,0.12
				s-0.02,0.96-0.34,2.23s-3.6,2.85-3.6,2.85c2.84-0.61,3.79-2.26,3.79-2.26s0.15,0.44,0,0.68c-0.15,0.24-1.93,0.99-1.93,0.99
				s1.94-0.3,2.38,0.17s-0.11,1.83-0.11,1.83s0.76-0.62,0.81-0.14s0.88,2.14,1.35,3.42c0.48,1.28,0.75,1.93,0.67,2.45
				s0.5,1.58,0.89,2.14s0.43,1.7,0.43,1.7s0.48,0.29,0.91,0.8C334.61,198.16,333.74,199.27,333.45,199.86z"/>
			<path class="st22" d="M323.19,170.67c0,0-0.17,0.04-0.42,0.14c-0.09,0.03-0.18,0.07-0.28,0.11c-0.39,0.17-1.82-0.15-1.82-0.15
				s0.42,1.02,0.74,1.53c0.32,0.5,0.32,0.84,0.32,0.84c-0.36-0.32-1.24-2.24-1.24-2.24s-0.04,0.27-0.42,0.29
				c-0.38,0.02-2.56-0.09-3.34,0.02s-1.18-0.32-1.67-0.55s-1.63,0.04-1.96,0.17s-0.8,0.05-0.92,0.01c-0.12-0.04-0.89-0.09-0.89-0.09
				s0.98-0.09,1.36-0.39c0.31-0.24,0.37-0.29,0.38-0.3l-0.72,0.77c0.03-0.01,1.07-0.47,1.25-0.73c0.19-0.26,0.19-0.26,0.19-0.26
				l-0.24,0.86c0,0,0.49-0.76,0.5-0.67s-0.05,0.57-0.05,0.57s0.92-0.51,1.85-0.43s1.56,0.04,1.56,0.04l-0.08-0.13
				c0,0,1.15-0.15,2.06-0.1s1.49,0.28,1.49,0.28s-0.41-0.58,0.15-0.55c0.55,0.03,1.24,0.63,1.26,0.65l-0.31-0.57l1.06,0.74l0,0
				C323.02,170.57,323.09,170.63,323.19,170.67z"/>
			<path class="st22" d="M294.85,179.91c0.18-0.08,0.47-0.28,0.6-0.34c0.31-0.13,0.45-0.47,0.52-0.71c0.1-0.35,0.68-0.7,0.7-1
				c0.01-0.15,0.05-0.34,0.08-0.48c0,0,0.28-0.33,0.32-0.06s0.31,0.75,0.19,1.06c-0.12,0.29-0.51,0.66-0.53,0.69
				c0.04-0.02,1.49-0.56,2.54-0.57c0.74-0.01,1.05-0.23,1.28-0.43c0.82,0.01,1.75,1.59,2.66,2.17c0.92,0.58,3.34,4.34,3.34,4.34
				s-2.46,0.62-4.53,0.79s-4.93-0.31-4.93-0.31s-0.84-0.12-1.28-0.56c-0.45-0.45-0.75-1.72-0.75-1.72s-0.01,0.01-0.02,0.02"/>
			<path class="st23" d="M322.99,170.51L322.99,170.51l-1.06-0.75l0.31,0.57c-0.02-0.02-0.72-0.62-1.26-0.65
				c-0.56-0.03-0.15,0.55-0.15,0.55s-0.58-0.23-1.49-0.28s-2.06,0.1-2.06,0.1l0.08,0.13c0,0-0.62,0.04-1.56-0.04
				c-0.93-0.08-1.85,0.43-1.85,0.43S314,170.09,314,170c-0.01-0.09-0.5,0.67-0.5,0.67l0.24-0.86c0,0,0,0-0.19,0.26
				c-0.18,0.26-1.22,0.71-1.25,0.73l0.72-0.77c-0.01,0.01-0.07,0.05-0.38,0.3c-0.38,0.3-1.36,0.39-1.36,0.39s0.77,0.05,0.89,0.09
				c0.12,0.04,0.59,0.13,0.92-0.01c0.33-0.13,1.48-0.4,1.96-0.17s0.89,0.67,1.67,0.55s2.96-0.01,3.34-0.02
				c0.38-0.02,0.42-0.29,0.42-0.29s0.88,1.92,1.24,2.24c0,0,0-0.33-0.32-0.84c-0.32-0.5-0.74-1.53-0.74-1.53s1.43,0.32,1.82,0.15
				c0.1-0.04,0.2-0.08,0.28-0.11c-0.14,0.05-1.27,0.04-1.79-0.04c-0.27-0.04-0.35-0.1-0.37-0.14l-0.06,0.15l-0.03-0.12
				c0,0,0.04,0.41-0.99,0.22c-1.04-0.19-1.86,0.04-2.54,0.17c-0.68,0.13-0.94,0.04-1.28-0.27s-1.07-0.35-1.07-0.35
				c0.61-0.27,1.32-0.16,2.11-0.1c0.79,0.07,0.97,0.05,0.97,0.05l-0.14-0.21c0,0,0.87-0.14,1.72-0.07s1.84,0.37,1.84,0.37
				c-0.09-0.18,0.13-0.48,0.47-0.35s0.82,0.4,0.82,0.4l-0.08-0.22c0,0,0.56,0.46,0.43,0.51c0.25-0.09,0.42-0.14,0.42-0.14
				C323.09,170.63,323.02,170.57,322.99,170.51z M312.13,170.74l-0.1-0.07l0.31-0.08L312.13,170.74z M313.31,170.62
				c-0.08,0.13-0.68,0.16-0.72,0.16c0.11-0.03,0.84-0.41,0.84-0.41S313.39,170.48,313.31,170.62z M313.85,170.54l-0.15,0.04
				c0.07-0.24,0.19-0.34,0.19-0.34L313.85,170.54z"/>
			<path class="st23" d="M295.06,182.77c0,0,0.3,1.27,0.75,1.72s1.28,0.56,1.28,0.56s2.86,0.48,4.93,0.31s4.53-0.79,4.53-0.79
				s-2.43-3.75-3.34-4.34c-0.92-0.58-1.84-2.17-2.66-2.17c-0.22,0.2-0.53,0.43-1.28,0.43c-1.05,0.01-2.49,0.55-2.54,0.57
				c0.02-0.02,0.42-0.39,0.53-0.69c0.12-0.3-0.15-0.78-0.19-1.06s-0.32,0.06-0.32,0.06c-0.03,0.14-0.07,0.32-0.08,0.48
				c-0.02,0.29-0.61,0.64-0.7,1c-0.1,0.35-0.39,0.71-0.96,0.96 M301.27,184.94c-1.22,0.04-3.35-0.07-3.8-0.42
				c-0.44-0.35-0.22-0.9-0.2-0.95c-0.02,0.03-0.67,0.46-1.23-0.12c-0.57-0.59-1.08-2.49-1.19-2.98c-0.11-0.49,0.53-0.63,0.78-0.73
				c0.25-0.11,0.42-0.36,0.45-0.7c0.03-0.35,0.37-0.43,0.55-0.66s0.18-0.73,0.18-0.73s0.12,0.29,0.02,0.7s-0.48,0.85-0.48,0.85
				l0.62,0.28c0,0,0.63-0.52,1.34-0.59c0.72-0.07,2.57-0.46,2.75-0.14s2.29,2.07,2.88,2.88s1.71,1.84,1.97,2.43
				C306.18,184.65,302.49,184.9,301.27,184.94z"/>
			<path class="st18" d="M311.21,170.06c-0.08,0.07-0.17,0.13-0.26,0.17C311.02,170.17,311.11,170.12,311.21,170.06z"/>
			<path class="st18" d="M320.67,170.77c0,0,0.42,1.02,0.74,1.53c0.32,0.5,0.32,0.84,0.32,0.84c-0.36-0.32-1.24-2.24-1.24-2.24
				s-0.04,0.27-0.42,0.29c-0.38,0.02-2.56-0.09-3.34,0.02s-1.18-0.32-1.67-0.55s-1.63,0.04-1.96,0.17s-0.8,0.05-0.92,0.01
				c-0.12-0.04-0.89-0.09-0.89-0.09s0.98-0.09,1.36-0.39c0.31-0.24,0.37-0.29,0.38-0.3l-0.72,0.77c0.03-0.01,1.07-0.47,1.25-0.73
				c0.19-0.26,0.19-0.26,0.19-0.26l-0.24,0.86c0,0,0.49-0.76,0.5-0.67s-0.05,0.57-0.05,0.57s0.92-0.51,1.85-0.43
				s1.56,0.04,1.56,0.04l-0.08-0.13c0,0,1.15-0.15,2.06-0.1s1.49,0.28,1.49,0.28s-0.41-0.58,0.15-0.55
				c0.55,0.03,1.24,0.63,1.26,0.65l-0.31-0.57l1.06,0.74l0,0c0.04,0.06,0.11,0.11,0.2,0.16c0,0-0.31,0.08-0.7,0.25
				C322.09,171.09,320.67,170.77,320.67,170.77z"/>
			<path class="st24" d="M307.73,176.92c0,0,0.99,0.74,1.5,2.64s0.13,2.37,0.13,2.37s-0.14-2.02-0.52-2.81
				C308.48,178.33,307.73,176.92,307.73,176.92z"/>
			<path class="st24" d="M306.66,178.01c0,0,1.19,0.77,1.82,2.84c0.63,2.07,0.65,2.91,0.65,2.91s-0.94-2.33-1.21-3.17
				C307.65,179.76,306.66,178.01,306.66,178.01z"/>
			<path class="st18" d="M295.08,179.78c0.57-0.26,0.81-0.58,0.9-0.93c0.1-0.35,0.68-0.7,0.7-1c0.01-0.15,0.05-0.34,0.08-0.48
				c0,0,0.28-0.33,0.32-0.06s0.31,0.75,0.19,1.06c-0.12,0.29-0.51,0.66-0.53,0.69c0.04-0.02,1.49-0.56,2.54-0.57
				c0.74-0.01,1.05-0.23,1.28-0.43c0.82,0.01,1.75,1.59,2.66,2.17c0.92,0.58,3.34,4.34,3.34,4.34s-2.46,0.62-4.53,0.79
				s-4.93-0.31-4.93-0.31s-0.84-0.12-1.28-0.56c-0.45-0.45-0.75-1.72-0.75-1.72"/>
			<path class="st25" d="M323.44,170.24c-0.34,0.19-0.52-0.31-0.52-0.31s-0.05,0.1,0.04,0.53c0,0.02,0.01,0.04,0.02,0.06l-1.06-0.74
				l0.31,0.57c-0.02-0.02-0.72-0.62-1.26-0.65c-0.56-0.03-0.15,0.55-0.15,0.55s-0.58-0.23-1.49-0.28s-2.06,0.1-2.06,0.1l0.08,0.13
				c0,0-0.62,0.04-1.56-0.04c-0.93-0.08-1.85,0.43-1.85,0.43s0.05-0.48,0.05-0.57c-0.01-0.09-0.5,0.67-0.5,0.67l0.24-0.86
				c0,0,0,0-0.19,0.26c-0.18,0.26-1.22,0.71-1.25,0.73l0.72-0.77c-0.01,0.01-0.07,0.05-0.38,0.3c-0.38,0.3-1.36,0.39-1.36,0.39
				l0.38-0.32l-0.84,0.3c0.34-0.24,0.41-0.6,0.42-0.66c0-0.01,0-0.01,0-0.01c-0.01,0.01-0.01,0.01-0.02,0.02
				c-0.11,0.05-0.2,0.11-0.26,0.17c-0.35,0.17-0.71,0.14-0.71,0.14c1.25-0.21,1.66-1.55,1.67-1.59c-0.5,0.87-1.51,0.76-1.51,0.76
				c1.29-0.5,1.11-1.57,1.11-1.57c-0.21,0.34-0.73,0.58-0.76,0.59c0.04-0.03,0.98-0.69,0.95-1.25c-0.01-0.21-0.01-0.51,0-0.84
				c-0.45-0.51-0.38-1.47-0.37-2.09c0.01-0.63,0.45-3.03,0.63-3.89s0.76-1.79,1.24-2.52s1.59-1.48,2.37-1.64
				c0.33-0.07,0.5-0.1,0.59-0.11c0.03-0.02,0.56-0.32,0.97-0.31c0.41,0.01,0.92,0.4,0.95,0.42l-0.09-0.09
				c0.61,0.26,0.84,0.81,0.84,0.81c0.38-0.57,1.02-0.14,1.04-0.13c-0.4-0.19-0.7-0.01-0.7-0.01s0.82,0,1.21,0.4
				c0.38,0.41,0.7,1.22,1.11,2.01c0.41,0.78,0.66,2.65,0.64,2.94s0.04,0.99,0.07,1.46c0.02,0.32,0.05,0.8,0.07,1.08
				c-0.04-0.41-0.13-0.98-0.16-1.28c-0.03-0.36-0.11-1.07-0.11-1.07c-0.06,0.43,0.03,1.67,0.18,2.38c0.15,0.72,0.65,1.51,0.9,2.34
				c0.23,0.78,0.19,2.32,0.04,2.57c-0.01,0.01-0.02,0.02-0.03,0.03C322.94,169.87,323.44,170.24,323.44,170.24z"/>
			<path class="st18" d="M311.21,170.06c-0.08,0.07-0.17,0.13-0.26,0.17C311.02,170.17,311.11,170.12,311.21,170.06z"/>
			<path class="st18" d="M309.18,185.16c0,0,1.85-2.4,2.08-3.95s0.9-4.44,0.02-5.73s-0.72-1.67-0.74-2.55s-0.63-1.81-1.25-1.79"/>
			<g>
				<path d="M325.24,172.55c0.69,0.32,1.27,0.8,1.78,1.35c0.52,0.54,0.94,1.17,1.29,1.83c0.69,1.33,1.04,2.86,0.82,4.35
					c-0.31-0.69-0.53-1.36-0.82-2c-0.27-0.65-0.56-1.27-0.89-1.88C326.79,174.95,326.05,173.79,325.24,172.55z"/>
			</g>
			<g>
				<path d="M327.39,173.8c0.55,0.26,0.82,0.67,1.01,1.11c0.16,0.45,0.24,0.94,0,1.51c-0.51-0.33-0.75-0.72-0.93-1.14
					C327.32,174.84,327.22,174.39,327.39,173.8z"/>
			</g>
			<g>
				<path d="M311.4,180.3c-0.59-0.89-0.97-1.77-1.35-2.66c-0.18-0.45-0.37-0.88-0.54-1.34c-0.18-0.45-0.36-0.89-0.54-1.41
					c0.97,0.49,1.59,1.42,2,2.36C311.35,178.22,311.58,179.24,311.4,180.3z"/>
			</g>
			<g>
				<path d="M307.97,177.27c0.38,0.13,0.67,0.39,0.91,0.67s0.42,0.61,0.55,0.96c0.24,0.69,0.29,1.48-0.08,2.18
					c-0.23-0.33-0.37-0.64-0.51-0.95c-0.14-0.3-0.25-0.6-0.36-0.9C308.28,178.63,308.09,178.04,307.97,177.27z"/>
			</g>
			<g>
				<path d="M307.06,178.44c0.46,0.22,0.79,0.6,1.05,0.99c0.27,0.39,0.47,0.82,0.63,1.26c0.3,0.88,0.45,1.81,0.26,2.78
					c-0.3-0.4-0.51-0.8-0.7-1.21c-0.2-0.41-0.34-0.82-0.5-1.23c-0.13-0.42-0.28-0.83-0.39-1.25L307.06,178.44z"/>
			</g>
			<path class="st18" d="M301.27,177.49c0,0,3.69,2.05,6.25,6.81"/>
			<g>
				<path d="M328.97,184.56c0.02,0.24-0.08,0.4-0.17,0.51c-0.09,0.12-0.21,0.18-0.33,0.22c-0.24,0.05-0.5,0.01-0.79-0.34
					c0.15-0.43,0.34-0.56,0.53-0.62c0.1-0.02,0.2-0.03,0.32,0.02C328.65,184.38,328.77,184.45,328.97,184.56z"/>
			</g>
			<g>
				<path d="M328.86,183.25c-0.06,0.73-0.49,1.26-0.97,1.66c-0.51,0.38-1.12,0.66-1.84,0.57c0.18-0.32,0.38-0.55,0.58-0.77
					c0.2-0.22,0.42-0.4,0.64-0.58C327.73,183.79,328.19,183.48,328.86,183.25z"/>
			</g>
			<g>
				<g>
					<path class="st26" d="M316.07,173.46L316.07,173.46c0.08,0.1,0.23,0.11,0.33,0.03l1.04-0.88c0.1-0.08,0.11-0.23,0.03-0.33l0,0
						c-0.08-0.1-0.23-0.11-0.33-0.03l-1.04,0.88C316,173.21,315.98,173.36,316.07,173.46z"/>
					<path class="st26" d="M315.51,177.75L315.51,177.75c0.13-0.03,0.2-0.15,0.17-0.28l-0.31-1.33c-0.03-0.13-0.15-0.2-0.28-0.17
						l0,0c-0.13,0.03-0.2,0.15-0.17,0.28l0.31,1.33C315.26,177.7,315.39,177.77,315.51,177.75z"/>
					<path class="st26" d="M318.12,182.98L318.12,182.98c0.07,0.11,0.22,0.14,0.32,0.07l1.52-1.01c0.11-0.07,0.14-0.22,0.07-0.32
						l0,0c-0.07-0.11-0.22-0.14-0.32-0.07l-1.52,1.01C318.08,182.73,318.05,182.88,318.12,182.98z"/>
					<path class="st26" d="M311.74,184.91L311.74,184.91c-0.09,0.09-0.09,0.24,0.01,0.33l1.32,1.26c0.09,0.09,0.24,0.09,0.33-0.01
						l0,0c0.09-0.09,0.09-0.24-0.01-0.33l-1.32-1.26C311.98,184.82,311.83,184.82,311.74,184.91z"/>
					<path class="st26" d="M318.65,192.63L318.65,192.63c0.07,0.11,0.22,0.14,0.32,0.07l1.52-1.01c0.11-0.07,0.14-0.22,0.07-0.32
						l0,0c-0.07-0.11-0.22-0.14-0.32-0.07l-1.52,1.01C318.61,192.37,318.58,192.52,318.65,192.63z"/>
					<path class="st26" d="M326.77,189.16L326.77,189.16c0.09,0.09,0.24,0.09,0.33,0l1.27-1.31c0.09-0.09,0.09-0.24,0-0.33l0,0
						c-0.09-0.09-0.24-0.09-0.33,0l-1.27,1.31C326.68,188.93,326.68,189.07,326.77,189.16z"/>
					<path class="st26" d="M322.78,172.63c0,0,0.58-0.14,0.62-0.54s0.07-0.66-0.18-0.47s-0.56,0.78-0.62,0.78
						C322.55,172.39,322.49,172.61,322.78,172.63z"/>
					<path class="st26" d="M325.39,173.89c0,0,0.11,0.44,0.28,0.46s0.26-0.1,0.46,0.13c0.2,0.24,0.39,0.48,0.39,0.48
						s0.05-0.47-0.24-0.64C325.98,174.16,325.6,173.85,325.39,173.89z"/>
					<path class="st26" d="M326.07,180.28c0,0,0.14,0.41,0.24,0.39c0.11-0.02,0.61-0.42,0.85-0.67s0.34-0.37,0.29-0.46
						C327.38,179.45,327.61,179.21,326.07,180.28z"/>
					<path class="st26" d="M328.19,182.13c0,0,0.29,0.23,0.47,0.58s0.17,0.45,0.17,0.45s0.16-0.4-0.04-0.74
						C328.59,182.09,328.24,181.49,328.19,182.13z"/>
					<path class="st26" d="M329.56,189.48c-0.01,0.04-0.14,0.32-0.03,0.35c0.11,0.03,0.45,0.02,0.52,0.1
						c0.08,0.08,0.2,0.25,0.2,0.25s0.03-0.41,0-0.54C330.21,189.51,329.56,189.48,329.56,189.48z"/>
					<path class="st26" d="M321.95,193.87c0,0,1.27,0.57,1.44,0.76c0.17,0.18-0.06-0.24,0.02-0.26c0.08-0.01-0.12-0.35-0.67-0.61
						C322.2,193.51,321.95,193.87,321.95,193.87z"/>
					<path class="st26" d="M328.66,197.64l0.22,0.51c0,0,0.22-0.53,0.47-0.83c0.25-0.29,0.54-0.83,0.56-1.02s0.11-0.27,0.02-0.23
						C329.84,196.12,329.11,197.4,328.66,197.64z"/>
					<path class="st26" d="M330.93,198.32c-0.09-0.06-0.06-0.49,0.28-0.46s0.34,0.11,0.42,0c0.08-0.12,0.1-0.21,0.1-0.21
						s0.07,0.3-0.11,0.47C331.45,198.28,331.04,198.39,330.93,198.32z"/>
					<path class="st26" d="M332.18,195.61c0,0,0,0.35,0.18,0.4c0.18,0.04,0.28-0.02,0.28-0.07s-0.36-0.31-0.36-0.41
						C332.28,195.42,332.18,195.61,332.18,195.61z"/>
					<polygon class="st26" points="314.19,196.03 314.37,195.62 313.19,194.27 312.63,194.23 					"/>
					<polygon class="st26" points="311.75,199.98 311.81,200.48 313.07,200.43 313.32,199.88 					"/>
					<polygon class="st26" points="314.6,202.97 316.03,204.1 316.16,203.9 314.71,202.91 					"/>
					<polygon class="st26" points="320.12,201.3 320.39,201.52 322.01,200.6 					"/>
					<path class="st26" d="M306.35,179.75c0,0,0.11-0.41,0.3-0.41s0.78,0.05,0.89,0.07c0.11,0.03,0.21,0.17,0.36,0.24
						s0.42,0.6,0.42,0.6s-0.25-0.15-0.58-0.22S306.35,179.75,306.35,179.75z"/>
					<path class="st26" d="M302.43,179.56c0,0-0.07-0.37,0.31-0.84s0.43-1.15,0.45-1.25c0.02-0.09-0.85,0.25-0.93,0.53
						s-0.31,0.93-0.31,0.93L302.43,179.56z"/>
					<polygon class="st26" points="308.33,173.73 308.65,174.03 309.46,173.22 309.04,172.8 					"/>
				</g>
				<g>
					<polygon class="st27" points="318,179.11 318.52,179.42 319.85,177.9 319.18,177.61 					"/>
					<polygon class="st27" points="313.5,181.24 313.58,183.13 314.14,183.17 313.8,181.33 					"/>
					<path class="st27" d="M310.41,188.26c0,0,0.2,0.46,0.22,0.41s0.81-0.92,0.81-0.92l-0.32-0.23L310.41,188.26z"/>
					<polygon class="st27" points="319.22,188.86 319.4,189.1 321.08,187.59 320.86,187.24 					"/>
					<polygon class="st27" points="314.41,190.89 314.91,191.02 315.05,192.47 314.85,192.54 					"/>
					<polygon class="st27" points="323.5,189.44 323.77,190.83 324.08,190.86 323.94,189.48 					"/>
					<path class="st27" d="M327.12,185.52c0,0,0.07,0.08,0.23,0.02s0.31-0.32,0.34-0.58s0.04-0.5,0.04-0.5
						S327.26,184.84,327.12,185.52z"/>
					<path class="st27" d="M323.49,181.73c0,0-0.08,0.2-0.24-0.02s-0.3-0.52-0.26-0.95c0.04-0.43,0.21-0.69,0.29-0.69
						C323.35,180.08,323.09,181.04,323.49,181.73z"/>
					<path class="st27" d="M325.81,176.13c0,0-0.42,1.47-0.33,1.61c0.09,0.13,0.31-0.06,0.4-0.42s0.27-0.94,0.27-0.94L325.81,176.13
						z"/>
					<polygon class="st27" points="320.39,198.11 320.43,198.41 321.04,198.09 322,196.7 321.61,196.49 					"/>
					<path class="st27" d="M325.18,198.55l0.33,1.5c0,0,0.18-0.09,0.19-0.16c0.01-0.08-0.14-1.41-0.19-1.51
						C325.46,198.26,325.18,198.55,325.18,198.55z"/>
					<path class="st27" d="M328.54,194.37l0.19,0.14l0.35-0.43c0,0,0.63-1.6,0.59-1.69s-0.28-0.31-0.45,0.15
						C329.06,193.02,328.54,194.37,328.54,194.37z"/>
					<path class="st27" d="M331.56,193.51c0,0,0.2,1.15,0.14,1.39s-0.06,0.24-0.06,0.24s0.23-0.17,0.17-0.8s-0.11-0.92-0.11-0.92
						S331.54,193.42,331.56,193.51z"/>
					<path class="st27" d="M330.53,201.46c0,0,0.03,0.38,0.3-0.3c0.27-0.69,0.68-1,0.58-1.16s-0.58,0.61-0.65,0.86
						C330.69,201.11,330.53,201.46,330.53,201.46z"/>
					<path class="st27" d="M333.36,199l-0.14,0.16c0,0-0.19-0.35-0.18-0.48S333.18,198.51,333.36,199z"/>
					<polygon class="st27" points="316.29,201.39 316.6,201.55 316.4,200.14 316.15,199.89 316.33,201.3 					"/>
					<path class="st27" d="M311.73,197.25c0,0,0.01,0.51,0.31,0.41c0.3-0.1,0.74-0.62,0.74-0.62l-0.22-0.6L311.73,197.25z"/>
					<path class="st27" d="M307,184.03c0,0-0.07-0.45,0.11-0.53s0.25-0.07,0.22-0.24c-0.02-0.16-0.1-0.29-0.07-0.44
						s0.16-0.57,0.16-0.57l0.56,0.1c0,0-0.46,0.67-0.39,0.97c0.07,0.29,0.15,0.35-0.03,0.42c-0.19,0.06-0.31,0.32-0.31,0.32
						L307,184.03z"/>
					<path class="st27" d="M306.15,176.2l0.23-0.28l-1.18-0.82l-0.42,0.18C304.78,175.28,305.95,175.75,306.15,176.2z"/>
					<path class="st27" d="M311.78,172.1c0,0,0.11,0.99,0.41,1.06s0.53,0.22,0.42-0.06c-0.12-0.28-0.31-0.82-0.29-1.06
						C312.33,171.79,311.64,171.73,311.78,172.1z"/>
				</g>
				<g>
					<path class="st28" d="M309.48,177.73c-0.02,0.04,0.79,1.97,0.79,1.97l0.39-0.25l-0.85-1.77L309.48,177.73z"/>
					<path class="st28" d="M319.68,174.92c0.08,0.12,0.95,1.28,1.04,1.52s0.39-0.31,0.39-0.31l-1.07-1.28L319.68,174.92z"/>
					<polygon class="st28" points="316.12,185.93 316.32,187.65 316.57,187.54 316.53,185.77 					"/>
					<path class="st28" d="M325.1,183.66l0.19,1.74c0,0,0.2,0.08,0.2,0.02s-0.11-1.87-0.11-1.87L325.1,183.66z"/>
					<polygon class="st28" points="325.75,192.62 326.04,194.29 326.4,193.87 326.13,192.54 					"/>
					<polygon class="st28" points="327.51,201.5 328.01,202.51 328.29,202.05 327.67,201.07 					"/>
					<polygon class="st28" points="316.83,195.21 317.37,197.23 317.84,197.27 317.44,194.98 					"/>
					<polygon class="st28" points="310.65,191.25 310.61,191.83 311.56,191.46 311.59,191.13 					"/>
				</g>
			</g>
			<path class="st29" d="M325.09,174.35c0,0,3.62,4.4,2.35,7.28s-4.37,2.89-6.04,4.8c-1.67,1.92-2.91,2.78-2.91,2.78
				s8.5-2.99,9.55-1.69s0.01,5.59,0.01,5.59l1.55,0.13c0,0,1.3,3.82,0.13,5.65c-1.17,1.83-2.18,0.74-6.26,2.69
				c-4.08,1.95-8.23,0.2-6.31-1.03s1.63-1.3,1.63-1.3s-5.78-1.38-5.54-3.41s0.68-3.35,0.68-3.35s-3.34-2.46-2.95-4.33
				c0.4-1.87,2.07-5.37,3.31-6.85c1.24-1.48-1.03-3.83-1.45-6.26s-0.9-3.77,0.82-2.58c1.73,1.19,4.83-1.27,6.37,2.39
				c1.54,3.65,2.64,4.59,2.64,4.59S323.27,173.85,325.09,174.35z"/>
			<path class="st29" d="M303.74,177.18l3.19,4.46l-0.84-4.27c0,0,1.85,1.26,1.89,1.22c0.04-0.03-1.09-2.66-1.09-2.66
				s1.99,0.51,2.56,2.07s0.69,2.19,0.69,2.19s0.09-2.35-0.94-3.99s-1.03-2.9-1.03-2.9s1.9,1.66,1.85,1.52
				c-0.04-0.14-0.52-2.97-1.03-2.88s-1.49,1.09-2.02,2.14s-3.73,2.63-3.73,2.63L303.74,177.18z"/>
			<path class="st30" d="M303.18,182.4c0,0,1.8,1.12-0.52,1.49c-2.32,0.37-5.08-0.3-4.45-1.98c0.63-1.68,0.76-2.71,1.2-2.6
				C299.87,179.42,302.64,181.54,303.18,182.4z"/>
			<path class="st30" d="M296.35,179.91c0,0-1.19-0.37-0.67,1.15s1.05,2.5,1.32,1.69C297.28,181.95,297.11,179.65,296.35,179.91z"/>
			<path class="st30" d="M315.89,170.4c-0.07,0.01,0.16,0.43,0.4,0.44c0.24,0.02,0.38-0.21,0.65-0.18c0.27,0.03,0.69,0.01,0.69,0.01
				S316.75,170.33,315.89,170.4z"/>
			<path class="st30" d="M318.26,170.38c0,0,1.41,0.54,1.67,0.36s0.31-0.31,0.31-0.31S319.22,169.9,318.26,170.38z"/>
			<path class="st30" d="M322.27,170.6c0,0-0.69-0.47-0.93-0.24C321.1,170.57,321.91,170.93,322.27,170.6z"/>
			<path class="st18" d="M295.02,179.82c0.57-0.26,0.86-0.61,0.96-0.96s0.68-0.7,0.7-1c0.01-0.15,0.05-0.34,0.08-0.48
				c0,0,0.28-0.33,0.32-0.06s0.31,0.75,0.19,1.06c-0.12,0.29-0.51,0.66-0.53,0.69c0.04-0.02,1.49-0.56,2.54-0.57
				c0.74-0.01,1.05-0.23,1.28-0.43c0.1-0.09,0.18-0.17,0.27-0.23c0.31-0.19,1.68-1.46,2.29-1.85c0.61-0.39,2.48-1.89,2.97-2.18
				s0.96-0.97,0.96-0.97s0,0,0.01-0.01c0.03-0.04,0.16-0.2,0.42-0.4c0.32-0.23,0.16-0.24,0.26-0.54c0.1-0.3,1.38-0.75,1.81-0.82
				c0.12-0.02,0.3-0.05,0.5-0.09s0.42-0.08,0.62-0.13c0.32-0.07,0.59-0.12,0.6-0.13l0,0c0,0,0.77,0.05,0.89,0.09
				c0.12,0.04,0.59,0.13,0.92-0.01c0.33-0.13,1.48-0.4,1.96-0.17s0.89,0.67,1.67,0.55s2.96-0.01,3.34-0.02
				c0.38-0.02,0.42-0.29,0.42-0.29s0.88,1.92,1.24,2.24c0,0,0-0.33-0.32-0.84c-0.32-0.5-0.74-1.53-0.74-1.53s1.43,0.32,1.82,0.15
				c0.39-0.17,0.7-0.25,0.7-0.25c0.2,0.1,0.53,0.19,0.9,0.29c0.6,0.16,1.33,0.34,1.91,0.66c1.17,0.64,2.07,2.35,2.24,2.9
				c0.17,0.55,0.27,0.22,0.34,0.46s0.17,0.84,0.27,1.15c0.1,0.31,0.73,0.59,1.07,1.25s-0.38,1.42-0.38,1.42s0,0,0.21,0.48
				s0.14,2.12-0.33,2.44s-0.28,0.81-0.16,1.5c0.11,0.68-0.29,1.35-0.29,1.35c1.11,0.91,1.1,1.88,1.1,1.88s0.16-0.03,0.38,0.57
				c0.23,0.61,0.47,1.63,0.77,2.12s0.69,2.22,0.68,2.64c-0.02,0.43,0.68,2.71,1.23,3.24c0.56,0.53,0.61,1.53,0.67,1.8
				c0.06,0.26,0.53,0.15,0.51,0.58c-0.02,0.43,0.2,1.48,0.17,1.88c-0.03,0.4-1.8,1.52-2.69,2.12c-0.89,0.6-4.06,2.55-6.29,3.27
				c-2.23,0.73-3.66,0.88-4.44,0.85s-5.4-0.85-7.13-1.46c-1.67-0.59-3.08-2.03-3.17-2.12l0,0l0,0c0,0-1.26-1.85-1.4-1.98
				c-0.14-0.13-0.3-0.33-0.3-0.33s0.54-1.46,0.82-2.38s0.4-1.87,0.31-2.85c-0.08-0.98-0.52-2.4-0.75-2.73
				c-0.23-0.32-0.94-0.72-0.83-1.9s0.87-2.74,0.92-3.27c0.04-0.53-0.78-2.55-0.78-2.55l-0.02,0.23c0,0-0.52-0.3-1.35,0.19
				c-0.83,0.49-0.83,0.21-0.83,0.21s-2.46,0.62-4.53,0.79s-4.93-0.31-4.93-0.31s-0.84-0.12-1.28-0.56
				c-0.45-0.45-0.75-1.72-0.75-1.72"/>
			<g>
				<text transform="matrix(1 0 0 1 186.3923 237.741)" class="st15 st31 st32">dogz 4 life</text>
			</g>
			<text transform="matrix(1 0 0 1 201.155 253.3853)" class="st13 st31 st33">for the love of dogz</text>
			<path class="st23" d="M295.28,182.71h-0.25l-0.24-0.78l-0.32-0.84l-0.09-0.69l0.29-0.39l0.33-0.19
				C295.01,179.82,295.53,182.58,295.28,182.71z"/>
			<path class="st18" d="M295.51,179.53c0,0-0.15,0.12-0.52,0.31c-0.37,0.18-0.71,0.41-0.57,0.97s0.56,1.39,0.65,1.97"/>
		</g>
	</g>
</g>
</svg>
